<svg xmlns="http://www.w3.org/2000/svg" viewBox="0 0 25.23 41.85"><defs><style>.cls-1{fill:#fdfdfd;}.cls-2{fill:#150e0f;}.cls-3{fill:#0361aa;}.cls-4{fill:#f7d200;}.cls-5{fill:#f6d100;}.cls-6{fill:#f9d400;}.cls-7{fill:#cd0004;}.cls-8{fill:#cb0004;}.cls-9{fill:#2a1005;}.cls-10{fill:#eaca05;}.cls-11{fill:#f5d202;}.cls-12{fill:#f8f8f8;}.cls-13{fill:#f7d301;}.cls-14{fill:#f9d501;}</style></defs><g id="Layer_2" data-name="Layer 2"><g id="Layer_1-2" data-name="Layer 1"><path class="cls-1" d="M13,0H24.93c.25,0,.3.05.3.29q0,20.64,0,41.28c0,.24-.05.28-.3.28H.29c-.24,0-.29,0-.29-.28Q0,26.66,0,11.74c.08,0,.11,0,.14.11.35,1.2.7,2.41,1.06,3.61a9.66,9.66,0,0,1,.57,3.89c-.14,1.29-.13,2.61-.16,3.92,0,2.07,0,4.15.12,6.22.06.82.13,1.63.21,2.45a15.34,15.34,0,0,0,1,4.15,8.87,8.87,0,0,0,1.68,2.73,8.89,8.89,0,0,0,3.1,2.09,10.69,10.69,0,0,0,3.63.85,15.79,15.79,0,0,0,4.17-.25A8.44,8.44,0,0,0,20.23,39a11.42,11.42,0,0,0,2.4-4.4,23.39,23.39,0,0,0,.83-5.94c0-1.22.1-2.44.09-3.66,0-.91-.12-1.83-.08-2.74.05-1.13-.12-2.25-.06-3.38a.61.61,0,0,0,0-.14,2.67,2.67,0,0,1,.05-1.4c.41-1.7,1-3.35,1.45-5,.09-.33.31-.65.23-1l-.62.14c-.31.06-.64.33-.88.2s-.33-.52-.49-.79a9.72,9.72,0,0,0-2.93-3.19,11.91,11.91,0,0,0-6.28-1.89c-.1,0-.24,0-.29-.08s.1-.15.16-.21a1.63,1.63,0,0,0-.58-2.64c-.09,0-.18-.06-.17-.15s-.1-.4-.09-.61,0-.3.31-.23c.74.18.83.1.82-.63V1.12c0-.19,0-.24-.24-.19C13.12,1.1,13,1,13,.32Z"/><path class="cls-1" d="M0,11.25q0-5.49,0-11C0,.05.05,0,.28,0H12.11s0,.09,0,.14c.21.72.06.9-.69.81a.53.53,0,0,1-.17,0c-.13-.05-.2,0-.19.14a3.39,3.39,0,0,0,0,.79c0,.06.41,0,.63,0a2.62,2.62,0,0,1,.28,0,.28.28,0,0,1,.13,0c.12.12-.06.88-.22.92a1.66,1.66,0,0,0-.75,2.44c.11.16.31.25.37.49a13.53,13.53,0,0,0-3.25.42A9.88,9.88,0,0,0,3.7,8.65a11,11,0,0,0-2.06,2.87c-.1.18-.15.14-.29.1Z"/><path class="cls-2" d="M0,11.25l1.34.37c.14,0,.19.08.29-.1A11,11,0,0,1,3.7,8.65a9.88,9.88,0,0,1,4.61-2.5,13.53,13.53,0,0,1,3.25-.42c-.06-.24-.26-.33-.37-.49a1.66,1.66,0,0,1,.75-2.44c.16,0,.34-.8.22-.92a.28.28,0,0,0-.13,0,2.62,2.62,0,0,0-.28,0c-.22,0-.61.06-.63,0a3.39,3.39,0,0,1,0-.79c0-.15.06-.19.19-.14a.53.53,0,0,0,.17,0c.75.09.9-.09.69-.81,0,0,0-.1,0-.14H13V.32c0,.71.08.78.81.61.21-.05.26,0,.24.19v.07c0,.73-.08.81-.82.63-.28-.07-.3,0-.31.23s.09.4.09.61.08.11.17.15a1.63,1.63,0,0,1,.58,2.64c-.06.06-.19.11-.16.21s.19.07.29.08a11.91,11.91,0,0,1,6.28,1.89,9.72,9.72,0,0,1,2.93,3.19c.16.27.25.65.49.79s.57-.14.88-.2l.62-.14c.08.37-.14.69-.23,1-.47,1.68-1,3.33-1.45,5a2.67,2.67,0,0,0-.05,1.4.61.61,0,0,1,0,.14c-.06,1.13.11,2.25.06,3.38,0,.91.07,1.83.08,2.74,0,1.22-.05,2.44-.09,3.66a23.39,23.39,0,0,1-.83,5.94,11.42,11.42,0,0,1-2.4,4.4,8.44,8.44,0,0,1-4.7,2.53,15.79,15.79,0,0,1-4.17.25,10.69,10.69,0,0,1-3.63-.85,8.89,8.89,0,0,1-3.1-2.09A8.87,8.87,0,0,1,3,36.09a15.34,15.34,0,0,1-1-4.15c-.08-.82-.15-1.63-.21-2.45-.15-2.07-.15-4.15-.12-6.22,0-1.31,0-2.63.16-3.92a9.66,9.66,0,0,0-.57-3.89C.85,14.26.5,13.05.15,11.85c0-.09-.06-.11-.14-.11ZM12.83,3a.65.65,0,0,0-.56,0,1,1,0,0,0-1,1.09c0,.22-.26.56.18.58.76,0,1.52,0,2.28,0,.16,0,.24,0,.24-.22a1,1,0,0,0,0-.38A1.09,1.09,0,0,0,12.83,3ZM2.44,12.23c-.06,0-.08,0-.11.07s-.08.19-.09.3a.68.68,0,0,1-.33.26c0-.15.07-.26.11-.37a.19.19,0,0,0-.11-.26,7.63,7.63,0,0,0-1.13-.41c-.18,0-.25,0-.2.2.34,1.15.68,2.3,1,3.45,0,.16.13.2.29.16,1.27-.28,2.56-.46,3.86-.62,1.75-.23,3.5-.39,5.26-.45a45.74,45.74,0,0,1,5.85.18,55.07,55.07,0,0,1,6.42.89c.18,0,.27,0,.32-.17.35-1.21.7-2.41,1.06-3.62a1.79,1.79,0,0,0-.95.21c-.54.21-.54.21-.46.75,0,0,0,0,0,.07h0a1.46,1.46,0,0,1-.37-.33c.14-.23.06-.37-.18-.44a1.81,1.81,0,0,0-1.19-.62.4.4,0,0,1-.42-.3c-.19-.65-.78-.74-1.33-1,0,.29.33.5.23.71s-.39.33-.59.48h-.18a1.49,1.49,0,0,0-.67-.93c-.16-.13-.37.2-.57.3a3,3,0,0,0-.29.2c-.15.09-.18.18-.1.35a.71.71,0,0,1,.13.55c-.11,0-.16-.13-.24-.2a1,1,0,0,0-1.14-.18.81.81,0,0,0-.31.95c0,.2.23.36.19.58a1.06,1.06,0,0,1-.34-1.27c.25-.66.82-.61,1.39-.5-.1-.4-.63-.38-.71-.76a6.41,6.41,0,0,0-.21-1.06.34.34,0,0,0-.3-.25L14.47,9c-.2,0-.3,0-.23.25s.14.61.23.91a.29.29,0,0,1-.17.4,1.17,1.17,0,0,0-.47.36c.79.19,1.11.5,1.14,1.11a1.41,1.41,0,0,1-1,1.35l0-.12a1.26,1.26,0,0,0,.77-1,1,1,0,0,0-.36-1,.91.91,0,0,0-1,0c-.07,0-.13.12-.22.08,0-.32.53-.45.35-.76a3.57,3.57,0,0,0-.73-.66c-.13-.12-.23-.14-.36,0s-.46.41-.7.6-.12.21,0,.34.3.26.25.5l-.32-.17a.79.79,0,0,0-1.19.7,3,3,0,0,0,0,.52l-.14.07c-.31-.82,0-1.36,1-1.65,0,0,0-.07-.06-.08-.69-.26-.6-.75-.38-1.28a1.46,1.46,0,0,1,0-.2c.08-.27,0-.4-.31-.34L10,9c-1.08.11-1.17.17-1.32,1a.46.46,0,0,0,0,.2.59.59,0,0,1-.34.62c-.17.1-.44.19-.39.48v.16c-.19.1-.3.32-.56.36,0-.28.35-.52.23-.73s-.43-.34-.66-.51l-.2-.14c-.06,0-.12,0-.15,0-.22.31-.57.53-.66.92l-.09.1c-.49-.29-.85-.62-.43-1.26-.57.22-1.16.33-1.35,1,0,.19-.19.24-.39.27a1.55,1.55,0,0,0-1.26.76ZM23.06,24.58c0-1.14,0-2.56,0-4,0-.82,0-1.65-.08-2.47a.3.3,0,0,0-.27-.33,35,35,0,0,0-7.28-.94,56.72,56.72,0,0,0-7.71.25c-1.71.2-3.42.44-5.11.76-.29.06-.38.19-.39.44,0,1.26-.12,2.53-.14,3.8,0,2.79,0,5.58.19,8.36a20.44,20.44,0,0,0,.67,4.26A8.35,8.35,0,0,0,9.1,40.92a14.21,14.21,0,0,0,5.84.28,8.35,8.35,0,0,0,3.54-1.34,9.33,9.33,0,0,0,3.45-4.8,24.43,24.43,0,0,0,1.13-7.45C23.09,26.7,23.06,25.78,23.06,24.58ZM17,7.22a1.1,1.1,0,0,1,.61,0,5.32,5.32,0,0,1,1.46.8A9.05,9.05,0,0,1,21.47,11c.06.13.11.24.28.28a2.3,2.3,0,0,1,1,.61c.1.1.2.19.33.08s0-.19,0-.27a9.09,9.09,0,0,0-6-5.08,18.94,18.94,0,0,0-7.68-.28,9.25,9.25,0,0,0-7.27,5.32c0,.09-.2.21,0,.33s.24,0,.33-.12a2.18,2.18,0,0,1,1-.57A.5.5,0,0,0,3.71,11a8.32,8.32,0,0,1,1-1.56A6.6,6.6,0,0,1,7.55,7.29a.72.72,0,0,1,.54-.06s0,.06,0,.07a9.51,9.51,0,0,0-2.48,3.29c0,.11-.21.23,0,.36s.25,0,.33-.14a7.33,7.33,0,0,0,.6-.65c.14-.2.26-.17.43,0s.55.4.82.61.35,0,.42-.15a.8.8,0,0,0,0-.27,4.13,4.13,0,0,1,3.24-3.69c.36-.09.34,0,.31.29a23.74,23.74,0,0,1-.66,3.21.24.24,0,0,0,.09.3c.14.1.22,0,.31-.06.3-.27.62-.52.91-.79a.24.24,0,0,1,.39,0c.27.26.56.5.85.74.1.08.18.24.36.12s.12-.23.08-.36a22.5,22.5,0,0,1-.64-3.25c0-.21,0-.26.23-.21a4,4,0,0,1,3.16,3,8.24,8.24,0,0,1,.19,1c0,.28.2.34.44.17s.58-.41.86-.63.23-.1.35,0,.45.51.68.76c.07.08.13.18.26.08s.09-.17,0-.27A9.16,9.16,0,0,0,17,7.22Zm5.82,10.17c.26.06.31,0,.34-.16.07-.35.14-.7.24-1.05s0-.29-.22-.33c-1.29-.27-2.6-.46-3.91-.61-1.55-.18-3.11-.31-4.66-.39a41.63,41.63,0,0,0-4.87.05c-1.51.11-3,.26-4.51.47-1.07.15-2.14.32-3.2.54-.2,0-.25.12-.19.31a9.47,9.47,0,0,1,.27,1.08c0,.24.13.23.33.19a45.3,45.3,0,0,1,4.48-.69,50.36,50.36,0,0,1,8-.36,50.54,50.54,0,0,1,6,.6C21.54,17.15,22.21,17.28,22.79,17.39ZM12.33,2.24a2.21,2.21,0,0,1,0,.26c0,.21.07.25.26.25s.26-.11.23-.28,0-.21,0-.31c0-.53,0-.53.5-.51a1.82,1.82,0,0,1,.33,0c.2,0,.26,0,.27-.23s-.13-.32-.39-.31c-.8,0-.73.16-.69-.65,0-.16,0-.3-.21-.31s-.29.1-.28.31c0,.71,0,.71-.73.66h0c-.24-.07-.29.05-.3.27s.08.31.31.26a.74.74,0,0,1,.21,0C12.35,1.64,12.35,1.64,12.33,2.24ZM11.36,7A3.43,3.43,0,0,0,9.11,8.88a10.25,10.25,0,0,1,1.7-.21c.2,0,.23-.11.26-.26C11.16,8,11.25,7.52,11.36,7Zm4.7,1.85a4,4,0,0,0-.23-.37,3.35,3.35,0,0,0-1.71-1.39c-.22-.08-.26,0-.24.17a9.09,9.09,0,0,0,.27,1.28c0,.18.17.12.27.13ZM12.58,4.77h-1c-.23,0-.3.07-.17.27a1.4,1.4,0,0,0,1.23.63A1.3,1.3,0,0,0,13.8,5c.11-.18.1-.27-.15-.27ZM4.77,10.09a1.48,1.48,0,0,0,1.15-.85,8.59,8.59,0,0,1,.75-1.07A5.63,5.63,0,0,0,4.77,10.09ZM18.56,8.22c.28.41.57.81.83,1.24a1,1,0,0,0,.68.53c.06,0,.11.1.18,0s0-.12,0-.18A4.71,4.71,0,0,0,18.56,8.22Z"/><path class="cls-3" d="M23.06,24.58c0,1.2,0,2.12,0,3a24.43,24.43,0,0,1-1.13,7.45,9.33,9.33,0,0,1-3.45,4.8,8.35,8.35,0,0,1-3.54,1.34,14.21,14.21,0,0,1-5.84-.28,8.35,8.35,0,0,1-6.21-6.19,20.44,20.44,0,0,1-.67-4.26C2,27.69,2,24.9,2,22.11c0-1.27.09-2.54.14-3.8,0-.25.1-.38.39-.44,1.69-.32,3.4-.56,5.11-.76a56.72,56.72,0,0,1,7.71-.25,35,35,0,0,1,7.28.94.3.3,0,0,1,.27.33c.08.82,0,1.65.08,2.47C23.08,22,23.06,23.44,23.06,24.58ZM9.66,39.38h4.39c1,.09,2.1.13,3.15.16.22,0,.29,0,.26-.27-.08-.72-.13-1.43-.21-2.15,0-.22.1-.51-.31-.55-.23,0-.42-.18-.7,0a1.71,1.71,0,0,1-2-.48,1.34,1.34,0,0,0-.51-.41A1.43,1.43,0,0,1,12.85,34a1.05,1.05,0,0,0-.21-.91c-.31.51-.37.61-.3.8a1.45,1.45,0,0,1-.84,1.78,1.39,1.39,0,0,0-.41.31A2,2,0,0,1,9,36.54c-.3-.11-.54.11-.83.08-.06,0-.06.08-.07.14-.11.85-.05,1.71-.19,2.55,0,.12,0,.25.19.22C8.58,39.42,9.13,39.48,9.66,39.38ZM19.5,26.91a.59.59,0,0,1-.49.66A3,3,0,0,0,18,28a.57.57,0,0,1-.72,0,13,13,0,0,0-1.59-.78L15,27v-.09a19,19,0,0,0,3-1.09,3.39,3.39,0,0,0-2.76.22A.16.16,0,0,1,15,26c-.05-.09,0-.16.06-.22a2.16,2.16,0,0,1,.74-.41,6.46,6.46,0,0,1,3-.27,3.18,3.18,0,0,0,1,0l.17,0s.06,0,.08,0,.24,0,.23-.21c0-.66,0-1.32-.05-2,0-.31-.16-.47-.52-.43a1.65,1.65,0,0,1-.49-.06.34.34,0,0,0-.4.17,1.76,1.76,0,0,1-1.55.85.44.44,0,0,0-.35.13,3.45,3.45,0,0,1-1.58.91.39.39,0,0,0-.32.35,1.48,1.48,0,0,1-.6,1,.26.26,0,0,0-.09.33,1.51,1.51,0,0,1-.14,1.21c-.06.14-.13.27-.2.41a4.34,4.34,0,0,0-.36.83,1.3,1.3,0,0,0,.47,1.59.6.6,0,0,1,.29.72.58.58,0,0,1-.69.37c-.16,0-.22.07-.29.16a1.36,1.36,0,0,0,.05,1.95c.07.09.15.14,0,.29a.92.92,0,0,0,.27,1.43c.16.11.26.14.31-.09s.07-.3.22-.27.06.2.08.31,0,.2,0,.31a1.19,1.19,0,0,0,1.83.62.21.21,0,0,1,.3,0,1.29,1.29,0,0,0,1.26,0c.13-.06.29-.14.3-.28s-.18-.12-.28-.19-.3-.18-.44-.29a.45.45,0,0,0-.39-.11,1.81,1.81,0,0,1-1.65-.59,1.09,1.09,0,0,0-.4-.27,1.43,1.43,0,0,1-1-1.41.66.66,0,0,1,.6-.59c.07,0,.15,0,.18.07s0,.12-.09.16-.35.3-.33.55a1.13,1.13,0,0,0,.79.9,1.75,1.75,0,0,1,.06-.33c0-.08.08-.19.2-.16s.06.12.07.2a1.11,1.11,0,0,0,1.21,1.13c.22,0,.46,0,.42-.31a.15.15,0,0,1,.11-.17c.08,0,.11.06.14.13a1.67,1.67,0,0,0,.54.64A1.14,1.14,0,0,0,19.38,35a.82.82,0,0,0,0-1.25c-.66-.67-.4-.91.32-1.24l.07,0c.14,0,.15-.14.1-.27-.12-.3-.36-.34-.64-.34s-.46.07-.59,0,0-.38,0-.58c0-.37.12-.37.5-.26a1.2,1.2,0,0,0,1.16,0c-.29-.2-.43-.43-.25-.75.06-.12,0-.18-.12-.2a1.85,1.85,0,0,0-1.54.31,2.91,2.91,0,0,0-.84,1.19,1,1,0,0,1-1.46.49,1.66,1.66,0,0,0-.73-.38A.67.67,0,0,1,15,30.57c.11.1.11.24.14.38a.63.63,0,0,0,.5.45c.22.05.09-.22.21-.29l.1-.06a.26.26,0,0,1,0,.1.64.64,0,0,0,.48.65c.36.08.56-.13.7-.42a4.43,4.43,0,0,1,.91-1.2.47.47,0,0,0,.16-.51c-.15-.61.23-1,.89-.93-.06.16-.23.16-.34.22s-.25.31-.18.53.23.26.45.17a1.2,1.2,0,0,1,.28,0,3.48,3.48,0,0,1,1.32.21c.3.08.55-.09.49-.35-.26-1.2-.54-2.4-.8-3.61,0-.11-.07-.18-.19-.15s-.43,0-.61.16ZM7.3,25.74s0,.06,0,.07a13.75,13.75,0,0,0,2.65,1c.09,0,.21,0,.22.14s-.08.1-.15.13a20,20,0,0,0-2.24,1.07.39.39,0,0,1-.44,0,4.45,4.45,0,0,0-1.26-.56.5.5,0,0,1-.37-.42,8.08,8.08,0,0,1-.09-.86c0-.48,0-.48-.51-.52-.15,0-.23,0-.27.19-.19,1.14-.47,2.25-.74,3.37-.12.52.06.67.61.51a2.61,2.61,0,0,1,1.54-.11c.21.07.31-.05.36-.22s0-.49-.39-.6c-.09,0-.23,0-.2-.13s.16-.08.25-.07a.78.78,0,0,1,.7,1,.45.45,0,0,0,.14.51,4,4,0,0,1,.93,1.23.61.61,0,0,0,.64.42c.35,0,.47-.27.51-.58,0-.06,0-.16.09-.15s.12.07.13.14c0,.31.18.2.32.11a.6.6,0,0,0,.35-.45c0-.11,0-.27.16-.32a.72.72,0,0,1-.46,1.12c-.15,0-.34,0-.46.14a1,1,0,0,1-1.69-.33,2.43,2.43,0,0,0-.32-.62,1.86,1.86,0,0,0-2-.83c-.17,0-.23.08-.15.25a.4.4,0,0,1-.1.54c-.25.18-.08.31.09.3.32,0,.67.09,1-.14s.37-.07.42.2a3.56,3.56,0,0,0,.1.47c.06.19,0,.23-.19.22a5.14,5.14,0,0,0-.68,0,.55.55,0,0,0-.49.39c-.07.22.2.21.33.28.81.42.76.62.26,1.12l0,0c-.33.42-.38.8-.14,1.12a1.13,1.13,0,0,0,1.3.43,1.46,1.46,0,0,0,.88-.77c0-.07.06-.18.16-.17s.11.12.1.2.12.26.31.28a1.14,1.14,0,0,0,1.32-1.12c0-.09,0-.21.1-.22s.14.08.17.15a1.09,1.09,0,0,1,.07.24c0,.11.06.12.16.08a.85.85,0,0,0,.32-1.41c-.06-.05-.15-.09-.1-.19s.16-.06.23-.05a.74.74,0,0,1,.55.89,1.41,1.41,0,0,1-.92,1.07,2.06,2.06,0,0,0-.56.36,2.1,2.1,0,0,1-1.71.56.24.24,0,0,0-.17,0l-.84.55A1.23,1.23,0,0,0,8.68,36c.08,0,.12-.15.26,0a1.2,1.2,0,0,0,1.79-.3,1.33,1.33,0,0,0,.14-.71c0-.07,0-.18.08-.2s.13.09.16.16.09.23.13.34c.77-.4.92-.91.48-1.59-.08-.12,0-.16,0-.23.65-.72.61-1,.11-1.91a.38.38,0,0,0-.43-.22.52.52,0,0,1-.57-.33.54.54,0,0,1,.14-.64,1.29,1.29,0,0,1,.21-.19,1.22,1.22,0,0,0,.44-1.34,5,5,0,0,0-.55-1.28,1.71,1.71,0,0,1-.18-1.41c.05-.14,0-.21-.12-.29a1.37,1.37,0,0,1-.57-1,.44.44,0,0,0-.35-.41,3.06,3.06,0,0,1-1.52-.87c-.09-.1-.19-.08-.29-.09a1.78,1.78,0,0,1-1.36-.59c-.37-.55-.8-.5-1.33-.44-.22,0-.31.09-.35.3A8,8,0,0,0,5,24.45c0,.65,0,.67.69.65a23.73,23.73,0,0,1,2.92,0,3.62,3.62,0,0,1,1.52.55c.1.06.22.16.16.27s-.23.06-.34,0a2.43,2.43,0,0,0-1.58-.34Zm2.4-7a1.91,1.91,0,0,0-1.24-.59,1.85,1.85,0,0,0-1.72.69c-.11.13-.21.28.06.36a7.92,7.92,0,0,1,1.75.8c.09.05.17.1.26,0a.9.9,0,0,1,1.06-.36,2.3,2.3,0,0,0,1.76-.19A1.62,1.62,0,0,1,13,19.34a4.06,4.06,0,0,0,2.36.27,1,1,0,0,1,1,.37c.09.11.16.14.29.08.52-.24,1-.48,1.56-.7.19-.08.17-.17.06-.29a1.93,1.93,0,0,0-2.71-.46c-.21.15-.27.12-.37-.09a1.49,1.49,0,0,0-2.15-.6,3.6,3.6,0,0,0-.59.51,1.57,1.57,0,0,0-1.83-.74A1.29,1.29,0,0,0,9.7,18.78Zm7,1.76c.33,0,.59-.06.85-.06a1.49,1.49,0,0,1,1.55,1.38c0,.09,0,.16.12.19a2.37,2.37,0,0,0,2.46-.75c.41-.66.39-1.13-.09-1.56a2.06,2.06,0,0,0-1.7-.45A8.06,8.06,0,0,0,16.66,20.54Zm-8.28-.08c0-.14-.1-.15-.17-.19a8.64,8.64,0,0,0-2-.85,3.71,3.71,0,0,0-1.52-.11,1.24,1.24,0,0,0-1,1.91,2.25,2.25,0,0,0,2.18.89c.28,0,.46-.11.42-.44a.68.68,0,0,1,.15-.42,1.87,1.87,0,0,1,1.44-.77A2.51,2.51,0,0,0,8.38,20.46Zm1.24-.54c-.21,0-.42.09-.49.3s.15.24.26.33c.35.27.7.52,1,.78a.19.19,0,0,0,.3,0,1,1,0,0,1,.94-.19,2.42,2.42,0,0,0,1.31.1,1.61,1.61,0,0,1,1.76.14c.06.05.11,0,.16,0L16,20.52c.21-.17.16-.33-.06-.43A1.3,1.3,0,0,0,15,20a2.06,2.06,0,0,1-1.61-.22,1.6,1.6,0,0,0-.75-.18,1.93,1.93,0,0,0-1,.25A2,2,0,0,1,10.1,20C10,20,9.78,20,9.62,19.92Zm.51,1.76a1.08,1.08,0,0,0-.14-.15,3.19,3.19,0,0,0-1.81-.72,1.69,1.69,0,0,0-1.31.37.75.75,0,0,0-.34.65A1.56,1.56,0,0,0,7.9,23.15c.15,0,.23,0,.24-.19a1.16,1.16,0,0,1,1-1.18C9.42,21.67,9.76,21.78,10.13,21.68Zm5,0h.74a1.29,1.29,0,0,1,1.27,1c.07.5.07.5.57.33l.2-.07a1.34,1.34,0,0,0,.83-1.21c0-.49-.38-.71-.79-.89a1.83,1.83,0,0,0-.9-.07A2.82,2.82,0,0,0,15.16,21.72Zm-3.89,4.84c0,.59.16,1,.51,1.14a1.5,1.5,0,0,0,1.81-.15,1,1,0,0,0,.31-1.16c0-.09-.06-.18-.18-.18-.64,0-1.26-.54-1.91-.07h-.07C11.34,26.08,11.22,26.27,11.27,26.56Zm.36-3.31a3,3,0,0,0-1.16-1.11,1.37,1.37,0,0,0-1.93.6.51.51,0,0,0,0,.52,2.24,2.24,0,0,0,1.26.84c.24.08.41,0,.51-.24a.9.9,0,0,1,.62-.53A6.26,6.26,0,0,1,11.63,23.25Zm2,0c1,.06,1,.07,1.42.77.08.12.15.12.27.09a2.71,2.71,0,0,0,1.24-.63.52.52,0,0,0,.17-.26A1.07,1.07,0,0,0,15.64,22C14.66,21.94,14.16,22.58,13.59,23.26Zm-2.14-1.74c-.24,0-.4,0-.47.13s.09.23.17.31a10.36,10.36,0,0,1,1.4,1.71c.06.09.12.26.24.06a10.21,10.21,0,0,1,1.5-1.85c.16-.17.1-.29-.1-.37a.55.55,0,0,0-.38,0,4.15,4.15,0,0,1-2.07.09A2.12,2.12,0,0,0,11.45,21.52Zm1.3,3.6c0,.46.11.58.57.69a.9.9,0,0,0,.72-.12,1.67,1.67,0,0,0,.77-1,.86.86,0,0,0-.42-1,.84.84,0,0,0-1,.06A1.69,1.69,0,0,0,12.75,25.12Zm-.28-.21a1.66,1.66,0,0,0-.32-1,.8.8,0,0,0-.94-.31.89.89,0,0,0-.72.95,1.19,1.19,0,0,0,.78,1.14C12,26,12.46,25.65,12.47,24.91ZM6.19,27c.24.64,1.61.88,2.81.11-.47-.18-.95-.33-1.41-.51-.23-.09-.34-.08-.37.2s-.28.5-.67.36Zm12.91,0L19,27c-.63.24-.67.23-.89-.42,0-.14-.13-.13-.22-.1L16.31,27a2.69,2.69,0,0,0,2.6.24C19.06,27.16,19.21,27.12,19.1,26.91Zm-7,2a1.62,1.62,0,0,1-.73,1.56c-.12.09-.19.2-.09.33s.19.2.38.12A1.37,1.37,0,0,0,12.06,28.94Zm1.11,0a1.38,1.38,0,0,0,.43,1.94A.35.35,0,0,0,14,30.8c.14-.13,0-.23-.09-.32A2.14,2.14,0,0,1,13.17,28.92Z"/><path class="cls-4" d="M23.21,12.87s0,0,0-.07c-.08-.54-.08-.54.46-.75a1.79,1.79,0,0,1,.95-.21c-.36,1.21-.71,2.41-1.06,3.62-.05.17-.14.2-.32.17a55.07,55.07,0,0,0-6.42-.89A45.74,45.74,0,0,0,11,14.56c-1.76.06-3.51.22-5.26.45-1.3.16-2.59.34-3.86.62-.16,0-.24,0-.29-.16-.33-1.15-.67-2.3-1-3.45,0-.18,0-.24.2-.2a7.63,7.63,0,0,1,1.13.41.19.19,0,0,1,.11.26c0,.11-.07.22-.11.37a.68.68,0,0,0,.33-.26,5.16,5.16,0,0,1,.47-.24.54.54,0,0,1,.68.1,1,1,0,0,1,.12,1,1,1,0,0,1-.7.73,1.44,1.44,0,0,1,0-.21.44.44,0,0,0-.31-.5.51.51,0,0,0-.59.22.45.45,0,0,0,0,.58,1.19,1.19,0,0,0,1.71.15,2,2,0,0,0,.72-1.13,5.58,5.58,0,0,0,.4.49,1.43,1.43,0,0,0,1.5.37.68.68,0,0,0,.47-.8.4.4,0,0,0-.46-.34.39.39,0,0,0-.38.43c0,.07.06.15,0,.21-.74-.28-1-.81-.8-1.4a.69.69,0,0,1,.39-.43,1.15,1.15,0,0,1,1.06.2A1.85,1.85,0,0,0,6,11.37c.09-.39.44-.61.66-.92,0,0,.09,0,.15,0l.2.14c.23.17.54.29.66.51s-.18.45-.23.73c.26,0,.37-.26.56-.36.62-.19,1.11,0,1.21.42a1.12,1.12,0,0,1-.76,1.36c0-.4-.16-.6-.44-.59a.46.46,0,0,0-.43.53.88.88,0,0,0,.12.32.86.86,0,0,0,1.11.29,2.2,2.2,0,0,0,1.09-1.08,1.53,1.53,0,0,0,1.2,1.12,1,1,0,0,0,1.17-.68.51.51,0,0,0-.89-.46.7.7,0,0,0-.09.5,1.28,1.28,0,0,1-.79-.75,3,3,0,0,1,0-.52.79.79,0,0,1,1.19-.7l.32.17c0-.24-.12-.37-.25-.5s-.15-.22,0-.34.47-.39.7-.6.23-.11.36,0a3.57,3.57,0,0,1,.73.66c.18.31-.36.44-.35.76.09,0,.15,0,.22-.08a.91.91,0,0,1,1,0,1,1,0,0,1,.36,1,1.26,1.26,0,0,1-.77,1c-.05-.06,0-.13,0-.2a.5.5,0,0,0-.34-.49.49.49,0,0,0-.53.12.52.52,0,0,0-.12.57,1,1,0,0,0,1.08.61,1.7,1.7,0,0,0,1.29-1,1.82,1.82,0,0,0,1.17,1c.6.19,1.2-.17,1.16-.69,0-.28-.19-.48-.47-.47s-.42.19-.42.47c0,0,0,.11,0,.13l-.4-.07L16.19,13c0-.22-.15-.38-.19-.58a.81.81,0,0,1,.31-.95,1,1,0,0,1,1.14.18c.08.07.13.16.24.2a.71.71,0,0,0-.13-.55c-.08-.17,0-.26.1-.35a3,3,0,0,1,.29-.2c.2-.1.41-.43.57-.3a1.49,1.49,0,0,1,.67.93,1.64,1.64,0,0,0-.43.5c.35,0,.65-.17.94-.05a.85.85,0,0,1,.49.73,1.08,1.08,0,0,1-.91,1.12.65.65,0,0,1,0-.14.38.38,0,0,0-.36-.5c-.31,0-.43.18-.48.42a.72.72,0,0,0,.64.79,1.53,1.53,0,0,0,1.49-.54c.07-.09.1-.22.25-.26a1.73,1.73,0,0,0,1.23,1.24,1,1,0,0,0,1.06-.2.55.55,0,0,0,0-.81h0a.45.45,0,0,0-.59-.09c-.31.13-.2.4-.17.63-.13,0-.21-.1-.32-.05h0c-.18-.31-.47-.56-.49-.95a.9.9,0,0,1,.26-.83.74.74,0,0,1,.84,0l.16.08a1.46,1.46,0,0,0,.37.33l0,0v0Z"/><path class="cls-5" d="M17,7.22a9.16,9.16,0,0,1,2.66,3.47c.06.1.09.19,0,.27s-.19,0-.26-.08c-.23-.25-.47-.49-.68-.76s-.2-.15-.35,0-.57.42-.86.63-.4.11-.44-.17a8.24,8.24,0,0,0-.19-1,4,4,0,0,0-3.16-3c-.23,0-.26,0-.23.21a22.5,22.5,0,0,0,.64,3.25c0,.13.09.26-.08.36s-.26,0-.36-.12c-.29-.24-.58-.48-.85-.74a.24.24,0,0,0-.39,0c-.29.27-.61.52-.91.79-.09.07-.17.16-.31.06a.24.24,0,0,1-.09-.3,23.74,23.74,0,0,0,.66-3.21c0-.26,0-.38-.31-.29a4.13,4.13,0,0,0-3.24,3.69.8.8,0,0,1,0,.27c-.07.2-.18.33-.42.15s-.56-.4-.82-.61-.29-.16-.43,0a7.33,7.33,0,0,1-.6.65c-.08.09-.15.28-.33.14s0-.25,0-.36A9.51,9.51,0,0,1,8.07,7.3s0,0,0-.07a.72.72,0,0,0-.54.06A6.6,6.6,0,0,0,4.72,9.46a8.32,8.32,0,0,0-1,1.56.5.5,0,0,1-.33.29,2.18,2.18,0,0,0-1,.57c-.09.09-.19.21-.33.12s0-.24,0-.33A9.25,9.25,0,0,1,9.38,6.35a18.94,18.94,0,0,1,7.68.28,9.09,9.09,0,0,1,6,5.08c0,.08.16.18,0,.27s-.23,0-.33-.08a2.3,2.3,0,0,0-1-.61c-.17,0-.22-.15-.28-.28A9.05,9.05,0,0,0,19,8.07a5.32,5.32,0,0,0-1.46-.8A1.1,1.1,0,0,0,17,7.22Z"/><path class="cls-6" d="M22.79,17.39c-.58-.11-1.25-.24-1.93-.35a50.54,50.54,0,0,0-6-.6,50.36,50.36,0,0,0-8,.36,45.3,45.3,0,0,0-4.48.69c-.2,0-.29.05-.33-.19a9.47,9.47,0,0,0-.27-1.08c-.06-.19,0-.27.19-.31,1.06-.22,2.13-.39,3.2-.54,1.5-.21,3-.36,4.51-.47a41.63,41.63,0,0,1,4.87-.05c1.55.08,3.11.21,4.66.39,1.31.15,2.62.34,3.91.61.21,0,.28.12.22.33s-.17.7-.24,1.05C23.1,17.37,23.05,17.45,22.79,17.39Z"/><path class="cls-7" d="M16.19,13l.15.18a.47.47,0,0,0,.52.26c.24,0,.08-.24.1-.37s.05-.25.23-.24a.28.28,0,0,1,.27.31.64.64,0,0,1-.83.54,1.52,1.52,0,0,1-1.14-1,.66.66,0,0,0-.19-.37,1.89,1.89,0,0,1-.2.58,1.37,1.37,0,0,1-1.35.79.63.63,0,0,1-.58-.39.39.39,0,0,1,.05-.49.27.27,0,0,1,.35-.06.34.34,0,0,1,.16.45c-.09.33,0,.29.26.18A1.41,1.41,0,0,0,15,12c0-.61-.35-.92-1.14-1.11a1.17,1.17,0,0,1,.47-.36.29.29,0,0,0,.17-.4c-.09-.3-.15-.61-.23-.91s0-.28.23-.25L16,9.17a.34.34,0,0,1,.3.25,6.41,6.41,0,0,1,.21,1.06c.08.38.61.36.71.76-.57-.11-1.14-.16-1.39.5A1.06,1.06,0,0,0,16.19,13Z"/><path class="cls-7" d="M8,11.3c0-.29.22-.38.39-.48a.59.59,0,0,0,.34-.62.46.46,0,0,1,0-.2c.15-.81.24-.87,1.32-1l.6-.06c.32-.06.39.07.31.34a1.46,1.46,0,0,0,0,.2c-.22.53-.31,1,.38,1.28,0,0,0,.05.06.08-1,.29-1.31.83-1,1.65a1.29,1.29,0,0,0,.67.78.46.46,0,0,0,.43.08c.15-.08,0-.21,0-.32s.07-.38.32-.38.32.16.31.38a.67.67,0,0,1-.61.59,1.24,1.24,0,0,1-1.23-.55,4.41,4.41,0,0,1-.39-.95,1,1,0,0,0-.08.25A1.57,1.57,0,0,1,8.3,13.71a.53.53,0,0,1-.56-.48.32.32,0,0,1,.12-.34.23.23,0,0,1,.27,0,.26.26,0,0,1,.09.34c-.1.32.08.29.28.22a1.4,1.4,0,0,0,.89-1.31A.92.92,0,0,0,8,11.3Z"/><path class="cls-8" d="M2.44,12.23a1.55,1.55,0,0,1,1.26-.76c.2,0,.34-.08.39-.27.19-.66.78-.77,1.35-1-.42.64-.06,1,.43,1.26.06.19-.1.11-.16.11a.87.87,0,0,0-.75.47,1.22,1.22,0,0,0,.66,1.76c.4.16.45.13.42-.27,0-.15,0-.31.22-.33s.26.12.28.29c0,.44-.43.73-1,.6a1.72,1.72,0,0,1-1-.86c-.08-.12-.09-.29-.29-.34a2.08,2.08,0,0,1-.3,1,1.38,1.38,0,0,1-1.24.75A.67.67,0,0,1,2,14a.29.29,0,0,1,.25-.3c.14,0,.27,0,.31.15a.55.55,0,0,1,0,.31c-.1.32.08.28.27.21a1.4,1.4,0,0,0,.74-.59,1.34,1.34,0,0,0,0-1.42C3.25,12,2.84,12.12,2.44,12.23Z"/><path class="cls-8" d="M19.37,11.4c.2-.15.48-.27.59-.48s-.2-.42-.23-.71c.55.22,1.14.31,1.33,1a.4.4,0,0,0,.42.3,1.81,1.81,0,0,1,1.19.62.19.19,0,0,1-.19.07l-.17-.05a.71.71,0,0,0-.88.6c-.15.7.2,1.4.65,1.47h0c0,.13.15.13.24.17s.19.09.27,0,0-.17,0-.24a.29.29,0,0,1,.21-.43,2.48,2.48,0,0,1,.39,0h0c.05.7-.38,1.06-1,.88a1.46,1.46,0,0,1-.78-.53,2.74,2.74,0,0,1-.44-1.35,2.94,2.94,0,0,1-.5.9,1.33,1.33,0,0,1-1.18.53c-.39,0-.6-.27-.59-.58s.06-.33.25-.32.26.16.25.35c0,.37,0,.4.37.26a1.37,1.37,0,0,0,.9-1.23,1,1,0,0,0-1-1C19.23,11.55,19.33,11.48,19.37,11.4Z"/><path class="cls-9" d="M2.44,12.23c.4-.11.81-.28,1.15.12a1.34,1.34,0,0,1,0,1.42,1.4,1.4,0,0,1-.74.59c-.19.07-.37.11-.27-.21a.55.55,0,0,0,0-.31c0-.15-.17-.18-.31-.15A.29.29,0,0,0,2,14a.67.67,0,0,0,.69.62,1.38,1.38,0,0,0,1.24-.75,2.08,2.08,0,0,0,.3-1c.2,0,.21.22.29.34a1.72,1.72,0,0,0,1,.86c.55.13,1-.16,1-.6,0-.17-.07-.31-.28-.29s-.23.18-.22.33c0,.4,0,.43-.42.27A1.22,1.22,0,0,1,5,12.05a.87.87,0,0,1,.75-.47c.06,0,.22.08.16-.11l.09-.1a1.85,1.85,0,0,1,.54.69,1.15,1.15,0,0,0-1.06-.2.69.69,0,0,0-.39.43c-.24.59.06,1.12.8,1.4.09-.06,0-.14,0-.21a.39.39,0,0,1,.38-.43.4.4,0,0,1,.46.34.68.68,0,0,1-.47.8,1.43,1.43,0,0,1-1.5-.37,5.58,5.58,0,0,1-.4-.49,2,2,0,0,1-.72,1.13,1.19,1.19,0,0,1-1.71-.15.45.45,0,0,1,0-.58.51.51,0,0,1,.59-.22.44.44,0,0,1,.31.5,1.44,1.44,0,0,0,0,.21,1,1,0,0,0,.7-.73,1,1,0,0,0-.12-1,.54.54,0,0,0-.68-.1,5.16,5.16,0,0,0-.47.24c0-.11-.07-.24.09-.3a.1.1,0,0,0,.11-.07Z"/><path class="cls-9" d="M8,11.3a.92.92,0,0,1,1.44.82,1.4,1.4,0,0,1-.89,1.31c-.2.07-.38.1-.28-.22a.26.26,0,0,0-.09-.34.23.23,0,0,0-.27,0,.32.32,0,0,0-.12.34.53.53,0,0,0,.56.48,1.57,1.57,0,0,0,1.44-1.32,1,1,0,0,1,.08-.25,4.41,4.41,0,0,0,.39.95,1.24,1.24,0,0,0,1.23.55.67.67,0,0,0,.61-.59c0-.22-.08-.38-.31-.38s-.31.18-.32.38.15.24,0,.32a.46.46,0,0,1-.43-.08,1.29,1.29,0,0,1-.67-.78l.14-.07a1.28,1.28,0,0,0,.79.75.7.7,0,0,1,.09-.5.51.51,0,0,1,.89.46,1,1,0,0,1-1.17.68,1.53,1.53,0,0,1-1.2-1.12,2.2,2.2,0,0,1-1.09,1.08.86.86,0,0,1-1.11-.29.88.88,0,0,1-.12-.32A.46.46,0,0,1,8,12.65c.28,0,.43.19.44.59a1.12,1.12,0,0,0,.76-1.36c-.1-.44-.59-.61-1.21-.42Z"/><path class="cls-10" d="M12.33,2.24c0-.6,0-.6-.55-.59a.74.74,0,0,0-.21,0c-.23.05-.32,0-.31-.26s.06-.34.3-.27h0c.74.05.75.05.73-.66,0-.21,0-.32.28-.31s.21.15.21.31c0,.81-.11.7.69.65.26,0,.41,0,.39.31s-.07.27-.27.23a1.82,1.82,0,0,0-.33,0c-.51,0-.51,0-.5.51,0,.1,0,.2,0,.31s0,.28-.23.28-.29,0-.26-.25A2.21,2.21,0,0,0,12.33,2.24Z"/><path class="cls-9" d="M19.37,11.4c0,.08-.14.15.05.19a1,1,0,0,1,1,1,1.37,1.37,0,0,1-.9,1.23c-.37.14-.4.11-.37-.26,0-.19-.05-.35-.25-.35s-.24.15-.25.32.2.54.59.58a1.33,1.33,0,0,0,1.18-.53,2.94,2.94,0,0,0,.5-.9A2.74,2.74,0,0,0,21.34,14a1.46,1.46,0,0,0,.78.53c.65.18,1.08-.18,1-.88a.55.55,0,0,1,0,.81,1,1,0,0,1-1.06.2,1.73,1.73,0,0,1-1.23-1.24c-.15,0-.18.17-.25.26a1.53,1.53,0,0,1-1.49.54.72.72,0,0,1-.64-.79c0-.24.17-.46.48-.42a.38.38,0,0,1,.36.5.65.65,0,0,0,0,.14,1.08,1.08,0,0,0,.91-1.12.85.85,0,0,0-.49-.73c-.29-.12-.59,0-.94.05a1.64,1.64,0,0,1,.43-.5Z"/><path class="cls-11" d="M13.92,4.12a1,1,0,0,1,0,.38c0,.17-.08.22-.24.22-.76,0-1.52,0-2.28,0-.44,0-.19-.36-.18-.58.32,0,.73.09.93-.06s.05-.61.09-.93c0,0,0-.06,0-.1a.65.65,0,0,1,.56,0c0,.28,0,.56,0,.83s.08.27.29.26S13.65,4.12,13.92,4.12Z"/><path class="cls-12" d="M11.36,7c-.11.52-.2,1-.29,1.41,0,.15-.06.27-.26.26a10.25,10.25,0,0,0-1.7.21A3.43,3.43,0,0,1,11.36,7Z"/><path class="cls-12" d="M16.06,8.85l-1.64-.18c-.1,0-.23.05-.27-.13a9.09,9.09,0,0,1-.27-1.28c0-.17,0-.25.24-.17a3.35,3.35,0,0,1,1.71,1.39A4,4,0,0,1,16.06,8.85Z"/><path class="cls-9" d="M14,13.33c-.21.11-.35.15-.26-.18a.34.34,0,0,0-.16-.45.27.27,0,0,0-.35.06.39.39,0,0,0-.05.49.63.63,0,0,0,.58.39,1.37,1.37,0,0,0,1.35-.79,1.89,1.89,0,0,0,.2-.58.66.66,0,0,1,.19.37,1.52,1.52,0,0,0,1.14,1,.64.64,0,0,0,.83-.54.28.28,0,0,0-.27-.31c-.18,0-.21.09-.23.24s.14.34-.1.37a.47.47,0,0,1-.52-.26l.4.07c.06,0,0-.08,0-.13,0-.28.13-.47.42-.47s.44.19.47.47c0,.52-.56.88-1.16.69a1.82,1.82,0,0,1-1.17-1,1.7,1.7,0,0,1-1.29,1A1,1,0,0,1,13,13.21a.52.52,0,0,1,.12-.57.49.49,0,0,1,.53-.12.5.5,0,0,1,.34.49c0,.07,0,.14,0,.2Z"/><path class="cls-3" d="M12.58,4.77h1.07c.25,0,.26.09.15.27a1.3,1.3,0,0,1-1.19.64A1.4,1.4,0,0,1,11.38,5c-.13-.2-.06-.28.17-.27Z"/><path class="cls-3" d="M13.92,4.12c-.27,0-.54,0-.81,0s-.31,0-.29-.26,0-.55,0-.83A1.09,1.09,0,0,1,13.92,4.12Z"/><path class="cls-3" d="M12.27,3s0,.07,0,.1c0,.32.15.74-.09.93s-.61.05-.93.06A1,1,0,0,1,12.27,3Z"/><path class="cls-12" d="M4.77,10.09a5.63,5.63,0,0,1,1.9-1.92,8.59,8.59,0,0,0-.75,1.07A1.48,1.48,0,0,1,4.77,10.09Z"/><path class="cls-12" d="M18.56,8.22a4.71,4.71,0,0,1,1.65,1.61c0,.06.1.1,0,.18s-.12,0-.18,0a1,1,0,0,1-.68-.53C19.13,9,18.84,8.63,18.56,8.22Z"/><path class="cls-9" d="M22.08,14.18c-.45-.07-.8-.77-.65-1.47a.71.71,0,0,1,.88-.6l.17.05a.19.19,0,0,0,.19-.07c.24.07.32.21.18.44l-.16-.08a.74.74,0,0,0-.84,0,.9.9,0,0,0-.26.83C21.61,13.62,21.9,13.87,22.08,14.18Z"/><path class="cls-8" d="M2.44,12.23a.1.1,0,0,1-.11.07S2.38,12.22,2.44,12.23Z"/><path class="cls-13" d="M7.3,25.74l1-.14a2.43,2.43,0,0,1,1.58.34c.11.07.25.16.34,0s-.06-.21-.16-.27a3.62,3.62,0,0,0-1.52-.55,23.73,23.73,0,0,0-2.92,0c-.69,0-.7,0-.69-.65A8,8,0,0,1,5,22.75c0-.21.13-.27.35-.3.53-.06,1-.11,1.33.44a1.78,1.78,0,0,0,1.36.59c.1,0,.2,0,.29.09a3.06,3.06,0,0,0,1.52.87.44.44,0,0,1,.35.41,1.37,1.37,0,0,0,.57,1c.1.08.17.15.12.29a1.71,1.71,0,0,0,.18,1.41,5,5,0,0,1,.55,1.28,1.22,1.22,0,0,1-.44,1.34,1.29,1.29,0,0,0-.21.19.54.54,0,0,0-.14.64.52.52,0,0,0,.57.33.38.38,0,0,1,.43.22c.5.88.54,1.19-.11,1.91-.06.07-.12.11,0,.23.44.68.29,1.19-.48,1.59,0-.11-.08-.23-.13-.34s-.06-.18-.16-.16-.08.13-.08.2a1.33,1.33,0,0,1-.14.71,1.2,1.2,0,0,1-1.79.3c-.14-.11-.18,0-.26,0a1.23,1.23,0,0,1-1.56-.26L8,35.19a.24.24,0,0,1,.17,0,2.1,2.1,0,0,0,1.71-.56,2.06,2.06,0,0,1,.56-.36,1.41,1.41,0,0,0,.92-1.07.74.74,0,0,0-.55-.89c-.07,0-.17,0-.23.05s0,.14.1.19a.85.85,0,0,1-.32,1.41c-.1,0-.15,0-.16-.08a1.09,1.09,0,0,0-.07-.24c0-.07-.06-.16-.17-.15s-.1.13-.1.22A1.14,1.14,0,0,1,8.5,34.81c-.19,0-.34-.05-.31-.28s0-.19-.1-.2-.13.1-.16.17a1.46,1.46,0,0,1-.88.77,1.13,1.13,0,0,1-1.3-.43c-.24-.32-.19-.7.14-1.12l0,0c.5-.5.55-.7-.26-1.12-.13-.07-.4-.06-.33-.28a.55.55,0,0,1,.49-.39,5.14,5.14,0,0,1,.68,0c.18,0,.25,0,.19-.22a3.56,3.56,0,0,1-.1-.47c0-.27-.21-.36-.42-.2s-.65.11-1,.14c-.17,0-.34-.12-.09-.3a.4.4,0,0,0,.1-.54c-.08-.17,0-.22.15-.25a1.86,1.86,0,0,1,2,.83,2.43,2.43,0,0,1,.32.62,1,1,0,0,0,1.69.33c.12-.14.31-.1.46-.14a.72.72,0,0,0,.46-1.12c-.16.05-.14.21-.16.32a.6.6,0,0,1-.35.45c-.14.09-.31.2-.32-.11,0-.07-.05-.14-.13-.14s-.08.09-.09.15c0,.31-.16.54-.51.58a.61.61,0,0,1-.64-.42,4,4,0,0,0-.93-1.23A.45.45,0,0,1,7,29.65a.78.78,0,0,0-.7-1c-.09,0-.23,0-.25.07s.11.11.2.13c.34.11.47.3.39.6s-.15.29-.36.22a2.61,2.61,0,0,0-1.54.11c-.55.16-.73,0-.61-.51.27-1.12.55-2.23.74-3.37,0-.17.12-.2.27-.19.5,0,.49,0,.51.52a8.08,8.08,0,0,0,.09.86.5.5,0,0,0,.37.42,4.45,4.45,0,0,1,1.26.56.39.39,0,0,0,.44,0A20,20,0,0,1,10.07,27c.07,0,.16-.06.15-.13s-.13-.12-.22-.14a13.75,13.75,0,0,1-2.65-1S7.32,25.78,7.3,25.74Z"/><path class="cls-13" d="M18.79,25.08a6.46,6.46,0,0,0-3,.27,2.16,2.16,0,0,0-.74.41c-.06.06-.11.13-.06.22a.16.16,0,0,0,.23,0A3.39,3.39,0,0,1,18,25.77a19,19,0,0,1-3,1.09V27l.67.3a13,13,0,0,1,1.59.78A.57.57,0,0,0,18,28a3,3,0,0,1,1-.45.59.59,0,0,0,.49-.66,3.49,3.49,0,0,0,0-1c.18-.15.41-.11.61-.16s.16,0,.19.15c.26,1.21.54,2.41.8,3.61.06.26-.19.43-.49.35a3.48,3.48,0,0,0-1.32-.21,1.2,1.2,0,0,0-.28,0c-.22.09-.37.06-.45-.17s-.07-.4.18-.53.28-.06.34-.22c-.66,0-1,.32-.89.93a.47.47,0,0,1-.16.51,4.43,4.43,0,0,0-.91,1.2c-.14.29-.34.5-.7.42a.64.64,0,0,1-.48-.65.26.26,0,0,0,0-.1l-.1.06c-.12.07,0,.34-.21.29a.63.63,0,0,1-.5-.45c0-.14,0-.28-.14-.38a.67.67,0,0,0,.37,1.08,1.66,1.66,0,0,1,.73.38,1,1,0,0,0,1.46-.49,2.91,2.91,0,0,1,.84-1.19A1.85,1.85,0,0,1,19.93,30c.11,0,.18.08.12.2-.18.32,0,.55.25.75a1.2,1.2,0,0,1-1.16,0c-.38-.11-.48-.11-.5.26,0,.2-.21.44,0,.58s.39,0,.59,0,.52,0,.64.34c0,.13,0,.22-.1.27l-.07,0c-.72.33-1,.57-.32,1.24a.82.82,0,0,1,0,1.25,1.14,1.14,0,0,1-1.54.11,1.67,1.67,0,0,1-.54-.64c0-.07-.06-.15-.14-.13a.15.15,0,0,0-.11.17c0,.32-.2.31-.42.31a1.11,1.11,0,0,1-1.21-1.13c0-.08,0-.18-.07-.2s-.17.08-.2.16a1.75,1.75,0,0,0-.06.33,1.13,1.13,0,0,1-.79-.9c0-.25.16-.4.33-.55s.13-.08.09-.16-.11-.07-.18-.07a.66.66,0,0,0-.6.59,1.43,1.43,0,0,0,1,1.41,1.09,1.09,0,0,1,.4.27,1.81,1.81,0,0,0,1.65.59.45.45,0,0,1,.39.11c.14.11.3.19.44.29s.28.07.28.19-.17.22-.3.28a1.29,1.29,0,0,1-1.26,0,.21.21,0,0,0-.3,0,1.19,1.19,0,0,1-1.83-.62c0-.11,0-.21,0-.31s0-.29-.08-.31-.19.15-.22.27-.15.2-.31.09a.92.92,0,0,1-.27-1.43c.11-.15,0-.2,0-.29a1.36,1.36,0,0,1-.05-1.95c.07-.09.13-.19.29-.16a.58.58,0,0,0,.69-.37.6.6,0,0,0-.29-.72,1.3,1.3,0,0,1-.47-1.59,4.34,4.34,0,0,1,.36-.83c.07-.14.14-.27.2-.41a1.51,1.51,0,0,0,.14-1.21.26.26,0,0,1,.09-.33,1.48,1.48,0,0,0,.6-1,.39.39,0,0,1,.32-.35,3.45,3.45,0,0,0,1.58-.91.44.44,0,0,1,.35-.13,1.76,1.76,0,0,0,1.55-.85.34.34,0,0,1,.4-.17,1.65,1.65,0,0,0,.49.06c.36,0,.51.12.52.43,0,.67,0,1.33.05,2,0,.16-.1.19-.23.21H20l-.17,0Z"/><path class="cls-14" d="M9.66,39.38c-.53.1-1.08,0-1.61.15-.18,0-.21-.1-.19-.22.14-.84.08-1.7.19-2.55,0-.06,0-.15.07-.14.29,0,.53-.19.83-.08A2,2,0,0,0,11.09,36a1.39,1.39,0,0,1,.41-.31,1.45,1.45,0,0,0,.84-1.78c-.07-.19,0-.29.3-.8a1.05,1.05,0,0,1,.21.91,1.43,1.43,0,0,0,.92,1.64,1.34,1.34,0,0,1,.51.41,1.71,1.71,0,0,0,2,.48c.28-.14.47,0,.7,0,.41,0,.29.33.31.55.08.72.13,1.43.21,2.15,0,.23,0,.27-.26.27-1.05,0-2.1-.07-3.15-.16a.49.49,0,0,0-.16-.05Z"/><path class="cls-13" d="M9.7,18.78a1.29,1.29,0,0,1,1-1.09,1.57,1.57,0,0,1,1.83.74,3.6,3.6,0,0,1,.59-.51,1.49,1.49,0,0,1,2.15.6c.1.21.16.24.37.09a1.93,1.93,0,0,1,2.71.46c.11.12.13.21-.06.29-.52.22-1,.46-1.56.7-.13.06-.2,0-.29-.08a1,1,0,0,0-1-.37A4.06,4.06,0,0,1,13,19.34a1.62,1.62,0,0,0-1.41.11,2.3,2.3,0,0,1-1.76.19A.9.9,0,0,0,8.81,20c-.09.14-.17.09-.26,0a7.92,7.92,0,0,0-1.75-.8c-.27-.08-.17-.23-.06-.36a1.85,1.85,0,0,1,1.72-.69A1.91,1.91,0,0,1,9.7,18.78Z"/><path class="cls-13" d="M16.66,20.54a8.06,8.06,0,0,1,3.19-1.25,2.06,2.06,0,0,1,1.7.45c.48.43.5.9.09,1.56a2.37,2.37,0,0,1-2.46.75c-.11,0-.11-.1-.12-.19a1.49,1.49,0,0,0-1.55-1.38C17.25,20.48,17,20.51,16.66,20.54Z"/><path class="cls-13" d="M8.38,20.46a2.51,2.51,0,0,1-.55,0,1.87,1.87,0,0,0-1.44.77.68.68,0,0,0-.15.42c0,.33-.14.41-.42.44a2.25,2.25,0,0,1-2.18-.89,1.24,1.24,0,0,1,1-1.91,3.71,3.71,0,0,1,1.52.11,8.64,8.64,0,0,1,2,.85C8.28,20.31,8.38,20.32,8.38,20.46Z"/><path class="cls-11" d="M9.62,19.92c.16,0,.33.06.48.11a2,2,0,0,0,1.59-.14,1.93,1.93,0,0,1,1-.25,1.6,1.6,0,0,1,.75.18A2.06,2.06,0,0,0,15,20a1.3,1.3,0,0,1,.91.05c.22.1.27.26.06.43l-1.09.83c-.05,0-.1.08-.16,0A1.61,1.61,0,0,0,13,21.24a2.42,2.42,0,0,1-1.31-.1,1,1,0,0,0-.94.19.19.19,0,0,1-.3,0c-.35-.26-.7-.51-1-.78-.11-.09-.32-.14-.26-.33S9.41,20,9.62,19.92Z"/><path class="cls-13" d="M10.13,21.68c-.37.1-.71,0-1,.1a1.16,1.16,0,0,0-1,1.18c0,.19-.09.2-.24.19a1.56,1.56,0,0,1-1.37-1.32.75.75,0,0,1,.34-.65,1.69,1.69,0,0,1,1.31-.37,3.19,3.19,0,0,1,1.81.72A1.08,1.08,0,0,1,10.13,21.68Z"/><path class="cls-13" d="M15.16,21.72a2.82,2.82,0,0,1,1.92-.9,1.83,1.83,0,0,1,.9.07c.41.18.77.4.79.89A1.34,1.34,0,0,1,17.94,23l-.2.07c-.5.17-.5.17-.57-.33a1.29,1.29,0,0,0-1.27-1Z"/><path class="cls-11" d="M11.27,26.56c0-.29.07-.48.47-.42h.07c.65-.47,1.27.08,1.91.07.12,0,.14.09.18.18a1,1,0,0,1-.31,1.16,1.5,1.5,0,0,1-1.81.15C11.43,27.53,11.28,27.15,11.27,26.56Z"/><path class="cls-11" d="M11.63,23.25a6.26,6.26,0,0,0-.69.08.9.9,0,0,0-.62.53c-.1.29-.27.32-.51.24a2.24,2.24,0,0,1-1.26-.84.51.51,0,0,1,0-.52,1.37,1.37,0,0,1,1.93-.6A3,3,0,0,1,11.63,23.25Z"/><path class="cls-13" d="M13.59,23.26c.57-.68,1.07-1.32,2.05-1.28a1.07,1.07,0,0,1,1.05,1.25.52.52,0,0,1-.17.26,2.71,2.71,0,0,1-1.24.63c-.12,0-.19,0-.27-.09C14.58,23.33,14.55,23.32,13.59,23.26Z"/><path class="cls-13" d="M11.45,21.52a2.12,2.12,0,0,1,.29.06,4.15,4.15,0,0,0,2.07-.09.55.55,0,0,1,.38,0c.2.08.26.2.1.37a10.21,10.21,0,0,0-1.5,1.85c-.12.2-.18,0-.24-.06A10.36,10.36,0,0,0,11.15,22c-.08-.08-.25-.15-.17-.31S11.21,21.5,11.45,21.52Z"/><path class="cls-13" d="M12.75,25.12a1.69,1.69,0,0,1,.62-1.31.84.84,0,0,1,1-.06.86.86,0,0,1,.42,1,1.67,1.67,0,0,1-.77,1,.9.9,0,0,1-.72.12C12.86,25.7,12.75,25.58,12.75,25.12Z"/><path class="cls-13" d="M12.47,24.91c0,.74-.49,1-1.2.77a1.19,1.19,0,0,1-.78-1.14.89.89,0,0,1,.72-.95.8.8,0,0,1,.94.31A1.66,1.66,0,0,1,12.47,24.91Z"/><path class="cls-10" d="M6.19,27l.36.16c.39.14.62,0,.67-.36s.14-.29.37-.2c.46.18.94.33,1.41.51C7.8,27.83,6.43,27.59,6.19,27Z"/><path class="cls-10" d="M19.1,26.91c.11.21,0,.25-.19.32a2.69,2.69,0,0,1-2.6-.24l1.55-.56c.09,0,.17,0,.22.1.22.65.26.66.89.42Z"/><path class="cls-10" d="M12.06,28.94a1.37,1.37,0,0,1-.44,2c-.19.08-.28,0-.38-.12s0-.24.09-.33A1.62,1.62,0,0,0,12.06,28.94Z"/><path class="cls-10" d="M13.17,28.92a2.14,2.14,0,0,0,.77,1.56c.09.09.23.19.09.32a.35.35,0,0,1-.43.06A1.38,1.38,0,0,1,13.17,28.92Z"/><path class="cls-9" d="M9.66,39.38l4.23-.05a.49.49,0,0,1,.16.05Z"/><path class="cls-9" d="M18.79,25.08l1,0A3.18,3.18,0,0,1,18.79,25.08Z"/><path class="cls-9" d="M19.54,25.89a3.49,3.49,0,0,1,0,1Z"/><path class="cls-9" d="M20,25.09h.08S20,25.13,20,25.09Z"/><path class="cls-9" d="M23.15,13.69a2.48,2.48,0,0,0-.39,0,.29.29,0,0,0-.21.43c0,.07.14.16,0,.24s-.18,0-.27,0-.21,0-.24-.17.19.07.32.05c0-.23-.14-.5.17-.63A.45.45,0,0,1,23.15,13.69Z"/><path class="cls-2" d="M23.21,12.87h.05v0l0,0Z"/></g></g></svg>