<svg xmlns="http://www.w3.org/2000/svg" viewBox="0 0 20.31 29.34"><defs><style>.cls-1{fill:#fdfdfd;}.cls-2{fill:#150e0f;}.cls-3{fill:#0361aa;}.cls-4{fill:#f7d200;}.cls-5{fill:#f6d100;}.cls-6{fill:#f9d400;}.cls-7{fill:#cd0004;}.cls-8{fill:#cb0004;}.cls-9{fill:#2a1005;}.cls-10{fill:#eaca05;}.cls-11{fill:#f5d202;}.cls-12{fill:#f8f8f8;}.cls-13{fill:#f7d301;}.cls-14{fill:#f9d501;}</style></defs><g id="Layer_2" data-name="Layer 2"><g id="Layer_1-2" data-name="Layer 1"><path class="cls-1" d="M10.5,0h9.57c.2,0,.24,0,.24.2q0,14.48,0,28.93c0,.17,0,.21-.24.21q-9.91,0-19.83,0c-.2,0-.24,0-.24-.21Q0,18.69,0,8.23c.06,0,.09,0,.11.08C.4,9.15.68,10,1,10.83a5.94,5.94,0,0,1,.45,2.73c-.11.91-.1,1.83-.12,2.75a42.3,42.3,0,0,0,.09,4.36c.05.57.1,1.14.17,1.71a9.62,9.62,0,0,0,.8,2.91,6,6,0,0,0,1.36,1.92,7.28,7.28,0,0,0,2.49,1.46,9.44,9.44,0,0,0,2.93.6,15,15,0,0,0,3.35-.17,7.13,7.13,0,0,0,3.78-1.78,7.7,7.7,0,0,0,1.93-3.08,14.15,14.15,0,0,0,.67-4.17c0-.85.09-1.71.08-2.56,0-.64-.1-1.28-.06-1.93s-.1-1.57-.06-2.36a.34.34,0,0,0,0-.1,1.64,1.64,0,0,1,0-1c.33-1.19.79-2.35,1.17-3.53.07-.23.25-.45.18-.71l-.5.09c-.25,0-.52.24-.71.14s-.26-.36-.39-.55a7.22,7.22,0,0,0-2.36-2.23A10.63,10.63,0,0,0,11.21,4c-.08,0-.19,0-.23,0s.08-.11.13-.15A1.08,1.08,0,0,0,10.64,2c-.07,0-.14,0-.14-.1s-.07-.28-.07-.43,0-.21.25-.17c.6.13.67.07.66-.44v0c0-.13,0-.16-.19-.13-.59.12-.65.07-.65-.43Z"/><path class="cls-1" d="M0,7.89Q0,4,0,.19C0,0,0,0,.22,0H9.75a.31.31,0,0,0,0,.1c.17.51.05.63-.56.58l-.13,0c-.11,0-.17,0-.16.1A2.06,2.06,0,0,0,9,1.3s.33,0,.51,0h.23s.08,0,.1,0,0,.61-.18.64A1.11,1.11,0,0,0,9,3.67c.09.11.24.18.29.34a12.5,12.5,0,0,0-2.61.3A8.36,8.36,0,0,0,3,6.07a7.55,7.55,0,0,0-1.66,2c-.08.12-.12.09-.23.06Z"/><path class="cls-2" d="M0,7.89l1.08.25c.11,0,.15.06.23-.06A7.55,7.55,0,0,1,3,6.07,8.36,8.36,0,0,1,6.69,4.31,12.5,12.5,0,0,1,9.3,4c-.05-.16-.2-.23-.29-.34A1.11,1.11,0,0,1,9.61,2c.13,0,.27-.56.18-.64s-.07,0-.1,0H9.46c-.18,0-.5.05-.51,0a2.06,2.06,0,0,1,0-.56c0-.1.05-.13.16-.1l.13,0c.61,0,.73-.07.56-.58a.31.31,0,0,1,0-.1h.75V.22c0,.5.06.55.65.43.17,0,.21,0,.19.13v0c0,.51-.06.57-.66.44-.22,0-.24,0-.25.17s.08.28.07.43.07.07.14.1a1.08,1.08,0,0,1,.47,1.85S11,3.9,11,4s.15,0,.23,0a10.63,10.63,0,0,1,5.06,1.33,7.22,7.22,0,0,1,2.36,2.23c.13.19.2.46.39.55s.46-.09.71-.14l.5-.09c.07.26-.11.48-.18.71-.38,1.18-.84,2.34-1.17,3.53a1.64,1.64,0,0,0,0,1,.34.34,0,0,1,0,.1c0,.79.09,1.58.06,2.36s.05,1.29.06,1.93c0,.85,0,1.71-.08,2.56a14.15,14.15,0,0,1-.67,4.17,7.7,7.7,0,0,1-1.93,3.08A7.13,7.13,0,0,1,12.5,29.1a15,15,0,0,1-3.35.17,9.44,9.44,0,0,1-2.93-.6,7.28,7.28,0,0,1-2.49-1.46,6,6,0,0,1-1.36-1.92,9.62,9.62,0,0,1-.8-2.91c-.07-.57-.12-1.14-.17-1.71a42.3,42.3,0,0,1-.09-4.36c0-.92,0-1.84.12-2.75A5.94,5.94,0,0,0,1,10.83C.68,10,.4,9.15.12,8.31c0-.07,0-.08-.11-.08ZM10.33,2.12a.58.58,0,0,0-.45,0,.78.78,0,0,0-.81.77c0,.15-.21.39.14.41.61,0,1.22,0,1.84,0,.13,0,.19,0,.19-.16a.48.48,0,0,0,0-.26A.81.81,0,0,0,10.33,2.12ZM2,8.57c-.05,0-.07,0-.09,0s-.07.14-.08.21A.46.46,0,0,1,1.53,9c0-.1.06-.18.09-.26a.12.12,0,0,0-.08-.18,7,7,0,0,0-.92-.28c-.14,0-.19,0-.15.13l.81,2.42c0,.11.11.14.23.12,1-.2,2.07-.33,3.11-.44,1.41-.16,2.82-.27,4.23-.32a41.27,41.27,0,0,1,4.72.13c1.73.14,3.46.31,5.16.62.15,0,.22,0,.26-.12.28-.84.57-1.68.85-2.53a1.65,1.65,0,0,0-.76.14c-.43.15-.43.15-.37.53,0,0,0,0,0,0h0a1.14,1.14,0,0,1-.3-.23c.11-.16.05-.25-.14-.31a1.55,1.55,0,0,0-1-.43C17.11,8,17,8,17,7.83c-.16-.45-.64-.52-1.08-.67,0,.2.27.35.19.49s-.31.23-.48.34h-.14c0-.3-.31-.48-.54-.65s-.3.14-.46.21-.15.1-.24.14-.14.13-.07.24.16.24.1.39c-.09,0-.13-.09-.19-.14a.88.88,0,0,0-.92-.12.52.52,0,0,0-.25.66c0,.15.18.25.16.41a.68.68,0,0,1-.28-.89c.2-.46.66-.43,1.12-.35-.08-.28-.51-.27-.57-.54a4.94,4.94,0,0,0-.17-.74.29.29,0,0,0-.24-.18l-1.25-.15c-.16,0-.24,0-.19.18s.12.43.19.64,0,.21-.14.27a1.08,1.08,0,0,0-.38.26c.64.13.89.35.92.77a1,1,0,0,1-.79.95V9.26a.88.88,0,0,0,.61-.69.62.62,0,0,0-.29-.68.81.81,0,0,0-.81,0s-.1.08-.17,0c0-.22.42-.31.27-.53s-.39-.3-.58-.46A.21.21,0,0,0,10,7c-.18.15-.37.29-.56.43s-.1.14,0,.23.24.19.2.36l-.26-.13c-.5-.18-.92,0-1,.5a2.17,2.17,0,0,0,0,.36l-.11,0c-.25-.58,0-.95.8-1.16,0,0,0-.05,0-.05-.56-.19-.49-.53-.32-.9a1.21,1.21,0,0,0,.05-.14c.06-.19,0-.28-.25-.24l-.48,0c-.88.08-1,.12-1.07.69a.32.32,0,0,0,0,.14.39.39,0,0,1-.28.43c-.13.07-.35.14-.31.34V8c-.15.07-.25.22-.45.26,0-.2.28-.37.18-.52s-.34-.24-.53-.35l-.16-.1s-.09,0-.12,0c-.18.21-.46.36-.53.64L4.73,8c-.4-.2-.69-.44-.35-.89-.46.16-.94.24-1.08.7C3.25,8,3.14,8,3,8a1.25,1.25,0,0,0-1,.53Zm16.59,8.66c0-.8,0-1.8,0-2.79,0-.58,0-1.16-.06-1.74,0-.13-.06-.19-.22-.22a32,32,0,0,0-5.86-.66A51.53,51.53,0,0,0,6.17,12c-1.38.13-2.75.3-4.11.53-.23,0-.31.13-.31.3,0,.89-.1,1.78-.11,2.66,0,2,0,3.91.15,5.87a12.61,12.61,0,0,0,.54,3,6.33,6.33,0,0,0,5,4.34,13.1,13.1,0,0,0,4.71.2,7.33,7.33,0,0,0,2.85-.94,6.69,6.69,0,0,0,2.77-3.37,14.87,14.87,0,0,0,.91-5.22C18.59,18.71,18.56,18.07,18.56,17.23ZM13.66,5.06a.86.86,0,0,1,.49,0,4.42,4.42,0,0,1,1.18.56,6.48,6.48,0,0,1,2,2.06c.06.08.09.16.23.19a2,2,0,0,1,.83.43.2.2,0,0,0,.27.06c.09-.07,0-.14,0-.19a7.1,7.1,0,0,0-4.85-3.56,17.35,17.35,0,0,0-6.18-.2A7.45,7.45,0,0,0,1.7,8.18c0,.06-.16.15,0,.23s.2,0,.27-.08a1.81,1.81,0,0,1,.78-.4A.37.37,0,0,0,3,7.72,5.66,5.66,0,0,1,3.8,6.63,5.27,5.27,0,0,1,6.08,5.11a.64.64,0,0,1,.43,0,.07.07,0,0,1,0,0,6.63,6.63,0,0,0-2,2.3c0,.08-.17.16,0,.26s.2,0,.27-.1a5.27,5.27,0,0,0,.48-.46c.12-.14.21-.12.35,0s.45.28.66.43.28,0,.34-.1a.64.64,0,0,0,0-.2A3,3,0,0,1,9.2,4.64c.29-.06.28,0,.25.2a14.7,14.7,0,0,1-.53,2.25A.15.15,0,0,0,9,7.3c.11.07.17,0,.24,0,.25-.19.5-.36.74-.55a.2.2,0,0,1,.3,0l.7.52c.07.06.14.17.29.09s.09-.17.06-.26a13.92,13.92,0,0,1-.52-2.28c0-.15,0-.18.19-.14a3.06,3.06,0,0,1,2.54,2.06,4.15,4.15,0,0,1,.15.7c0,.2.16.23.36.12l.69-.44a.18.18,0,0,1,.28,0c.17.18.36.35.55.53s.11.12.21,0,.07-.12,0-.19A6.71,6.71,0,0,0,13.66,5.06Zm4.69,7.13c.2,0,.25,0,.27-.11.06-.25.11-.5.19-.74s0-.2-.17-.23c-1.05-.19-2.1-.32-3.15-.43-1.25-.13-2.5-.22-3.76-.27a36.43,36.43,0,0,0-3.91,0c-1.22.07-2.43.18-3.63.32-.87.11-1.73.22-2.58.38-.16,0-.2.08-.15.22a5.26,5.26,0,0,1,.21.75c0,.17.11.16.27.14,1.19-.22,2.4-.37,3.61-.49a46.19,46.19,0,0,1,11.24.17ZM9.93,1.57a1.28,1.28,0,0,1,0,.18c0,.15.06.18.22.18s.2-.08.18-.2,0-.15,0-.22c0-.37,0-.37.41-.36H11c.16,0,.21,0,.22-.16s-.11-.22-.31-.21c-.65,0-.59.1-.56-.46,0-.11,0-.21-.17-.22s-.23.07-.23.22c0,.49,0,.49-.58.46h0c-.2-.05-.24,0-.25.19s.07.22.25.18h.18C9.94,1.15,9.94,1.15,9.93,1.57ZM9.14,4.9A2.76,2.76,0,0,0,7.33,6.22,9.5,9.5,0,0,1,8.7,6.08c.16,0,.19-.08.21-.18C9,5.58,9.06,5.27,9.14,4.9Zm3.79,1.3-.18-.26a2.73,2.73,0,0,0-1.38-1c-.18,0-.21,0-.19.12a5.86,5.86,0,0,0,.21.9c0,.12.14.08.22.09Zm-2.8-2.86H9.29c-.17,0-.23.05-.13.19a1.16,1.16,0,0,0,1,.44,1.07,1.07,0,0,0,1-.45c.09-.12.08-.19-.12-.18S10.41,3.34,10.13,3.34ZM3.84,7.07a1.18,1.18,0,0,0,.93-.59,6.06,6.06,0,0,1,.6-.76A4.35,4.35,0,0,0,3.84,7.07Zm11.1-1.31c.22.29.46.57.67.87a.78.78,0,0,0,.55.37c.05,0,.08.07.14,0s0-.08,0-.12A3.68,3.68,0,0,0,14.94,5.76Z"/><path class="cls-3" d="M18.56,17.23c0,.84,0,1.48,0,2.12a14.87,14.87,0,0,1-.91,5.22,6.69,6.69,0,0,1-2.77,3.37,7.33,7.33,0,0,1-2.85.94,13.1,13.1,0,0,1-4.71-.2,6.33,6.33,0,0,1-5-4.34,12.61,12.61,0,0,1-.54-3c-.16-2-.18-3.91-.15-5.87,0-.88.07-1.77.11-2.66,0-.17.08-.27.31-.3,1.36-.23,2.73-.4,4.11-.53a51.53,51.53,0,0,1,6.21-.18,32,32,0,0,1,5.86.66c.16,0,.21.09.22.22.06.58,0,1.16.06,1.74C18.58,15.43,18.56,16.43,18.56,17.23ZM7.78,27.6h3.53c.85.07,1.69.09,2.54.11.17,0,.23,0,.21-.19-.07-.5-.11-1-.17-1.5,0-.15.07-.36-.25-.39s-.34-.12-.56,0a1.52,1.52,0,0,1-1.59-.33,1,1,0,0,0-.4-.29c-.59-.26-.87-.65-.75-1.15a.66.66,0,0,0-.16-.64c-.26.36-.3.43-.25.56A1,1,0,0,1,9.26,25a.83.83,0,0,0-.33.22,1.75,1.75,0,0,1-1.72.39c-.25-.08-.44.08-.67.05-.06,0,0,.06-.06.1-.09.6,0,1.2-.15,1.79,0,.09,0,.18.15.15C6.91,27.63,7.35,27.67,7.78,27.6Zm7.92-8.74c0,.24-.11.39-.4.46a2.86,2.86,0,0,0-.83.32.53.53,0,0,1-.58,0,9.14,9.14,0,0,0-1.28-.55l-.53-.21v-.07a15,15,0,0,0,2.41-.76,3.13,3.13,0,0,0-2.22.16s-.14.05-.18,0,0-.11.05-.16a1.69,1.69,0,0,1,.59-.28,5.76,5.76,0,0,1,2.41-.19,2.81,2.81,0,0,0,.82,0h.13a0,0,0,0,0,.07,0c.1,0,.19,0,.19-.15,0-.46,0-.93-.05-1.39,0-.22-.13-.34-.42-.3a1.81,1.81,0,0,1-.39-.05.3.3,0,0,0-.33.12,1.47,1.47,0,0,1-1.24.6.38.38,0,0,0-.28.09,3,3,0,0,1-1.27.64c-.15,0-.24.09-.26.24a1.05,1.05,0,0,1-.48.73.16.16,0,0,0-.07.23,1,1,0,0,1-.11.85c-.06.1-.12.19-.17.29a2.42,2.42,0,0,0-.29.58.85.85,0,0,0,.38,1.11c.2.13.32.3.23.51a.47.47,0,0,1-.56.25c-.12,0-.17.06-.23.12a.87.87,0,0,0,0,1.37c.06.06.12.1,0,.2-.31.36-.22.74.22,1,.13.08.21.1.26-.06s.05-.21.17-.19.05.14.06.21l0,.22a1,1,0,0,0,1.47.44.2.2,0,0,1,.25,0,1.19,1.19,0,0,0,1,0c.1-.05.23-.1.23-.2s-.14-.09-.21-.13-.25-.13-.36-.21a.41.41,0,0,0-.32-.07,1.58,1.58,0,0,1-1.32-.42A.88.88,0,0,0,12,24c-.52-.18-.88-.62-.81-1a.5.5,0,0,1,.48-.42c.06,0,.12,0,.15.05s0,.09-.07.11-.28.21-.27.39a.82.82,0,0,0,.64.63.86.86,0,0,1,0-.23.15.15,0,0,1,.16-.12c.09,0,.05.09.05.14,0,.48.4.8,1,.8.18,0,.36,0,.34-.22a.1.1,0,0,1,.08-.12c.07,0,.1.05.12.09a1.16,1.16,0,0,0,.43.45,1,1,0,0,0,1.24-.08.53.53,0,0,0,0-.88c-.53-.46-.31-.63.26-.86h.06c.11,0,.12-.1.08-.2s-.29-.23-.51-.23-.37.05-.48,0,0-.27,0-.41.1-.26.41-.18a1,1,0,0,0,.93,0c-.23-.14-.34-.3-.2-.53s0-.12-.09-.13a1.62,1.62,0,0,0-1.24.21,2.06,2.06,0,0,0-.69.84.8.8,0,0,1-1.17.34,1.27,1.27,0,0,0-.58-.26c-.41-.11-.55-.48-.31-.77a.39.39,0,0,1,.12.27.48.48,0,0,0,.4.32c.18,0,.08-.16.17-.2l.08,0s0,0,0,.07a.47.47,0,0,0,.39.46.52.52,0,0,0,.57-.29,2.8,2.8,0,0,1,.73-.85.31.31,0,0,0,.13-.36c-.12-.42.18-.68.71-.65-.05.11-.18.11-.28.16a.25.25,0,0,0-.14.37c.07.16.19.18.36.12a.58.58,0,0,1,.23,0,3,3,0,0,1,1.07.15c.23,0,.43-.07.39-.25-.21-.84-.43-1.69-.65-2.53,0-.07-.05-.12-.15-.1a1.19,1.19,0,0,0-.49.1ZM5.87,18s0,.05,0,.05a12.08,12.08,0,0,0,2.14.67c.07,0,.17,0,.18.1s-.07.07-.12.09a19.13,19.13,0,0,0-1.81.75.32.32,0,0,1-.35,0,4.7,4.7,0,0,0-1-.39c-.18-.05-.28-.14-.3-.29a3.07,3.07,0,0,1-.07-.6c0-.34,0-.34-.42-.36-.12,0-.18,0-.21.13-.16.79-.39,1.58-.6,2.36-.1.36.05.47.49.35a2.49,2.49,0,0,1,1.24-.07.21.21,0,0,0,.29-.16c.07-.21,0-.34-.32-.41-.06,0-.18,0-.15-.09s.12-.06.2,0a.55.55,0,0,1,.56.68.3.3,0,0,0,.12.36,3.06,3.06,0,0,1,.75.86.47.47,0,0,0,.5.29.42.42,0,0,0,.42-.4s0-.11.07-.11a.1.1,0,0,1,.1.1c0,.22.15.14.27.08a.45.45,0,0,0,.28-.32c0-.07,0-.18.12-.22.22.35.06.67-.37.78-.12,0-.27,0-.37.11a.83.83,0,0,1-1.36-.24,1.59,1.59,0,0,0-.26-.43,1.57,1.57,0,0,0-1.6-.59c-.14,0-.18.06-.12.18a.26.26,0,0,1-.08.38c-.2.12-.06.21.07.21s.54.06.78-.1.3,0,.34.14a1.77,1.77,0,0,0,.08.33c.05.13,0,.16-.15.16a4.87,4.87,0,0,0-.54,0,.46.46,0,0,0-.41.28c0,.15.17.14.28.19.64.3.61.44.21.79l0,0c-.27.3-.3.57-.11.79a1,1,0,0,0,1,.3,1.14,1.14,0,0,0,.7-.54c0-.05,0-.12.13-.12s.09.08.08.14.1.19.25.2c.61,0,1-.27,1.06-.79,0-.06,0-.14.09-.15s.11.05.13.11a.44.44,0,0,1,.06.16c0,.08,0,.09.13.06a.56.56,0,0,0,.25-1c-.05,0-.12-.07-.07-.13s.12,0,.18,0a.52.52,0,0,1,.44.62,1,1,0,0,1-.74.76,1.61,1.61,0,0,0-.45.24,1.79,1.79,0,0,1-1.38.4.19.19,0,0,0-.13,0l-.68.39A1.11,1.11,0,0,0,7,25.23c.06,0,.1-.11.21,0A1,1,0,0,0,8.63,25a.78.78,0,0,0,.12-.49c0-.05,0-.13.06-.14s.11.06.13.1a1.36,1.36,0,0,1,.11.25c.61-.28.74-.64.38-1.12-.06-.08,0-.11,0-.16.52-.5.49-.72.09-1.34a.33.33,0,0,0-.35-.15.44.44,0,0,1-.46-.23.35.35,0,0,1,.11-.45A1.09,1.09,0,0,1,9,21.13a.8.8,0,0,0,.36-.94,3.16,3.16,0,0,0-.45-.9,1.07,1.07,0,0,1-.14-1c0-.1,0-.15-.1-.2a1,1,0,0,1-.46-.68A.33.33,0,0,0,8,17.13a2.61,2.61,0,0,1-1.22-.61.29.29,0,0,0-.24-.06A1.54,1.54,0,0,1,5.41,16c-.29-.38-.65-.35-1.07-.3-.17,0-.25.06-.28.2A4.84,4.84,0,0,0,4,17.14c0,.45,0,.46.56.45a20.3,20.3,0,0,1,2.34,0A3,3,0,0,1,8.13,18c.08,0,.18.11.13.19s-.19,0-.28,0a2.18,2.18,0,0,0-1.26-.24Zm1.94-4.88a1.65,1.65,0,0,0-1-.41,1.62,1.62,0,0,0-1.39.48c-.08.09-.16.2.06.26a6.79,6.79,0,0,1,1.4.55c.08,0,.14.08.21,0A.78.78,0,0,1,8,13.77a2.14,2.14,0,0,0,1.41-.14,1.52,1.52,0,0,1,1.13-.08,3.75,3.75,0,0,0,1.91.2.93.93,0,0,1,.83.25.17.17,0,0,0,.23.06l1.26-.49c.15-.06.13-.12,0-.2A1.7,1.7,0,0,0,12.58,13c-.17.11-.21.09-.3-.06a1.28,1.28,0,0,0-1.73-.42,2.73,2.73,0,0,0-.47.35A1.37,1.37,0,0,0,8.6,12.4,1,1,0,0,0,7.81,13.16Zm5.6,1.23c.27,0,.47,0,.68,0a1.14,1.14,0,0,1,1.25,1c0,.06,0,.11.1.13a2.07,2.07,0,0,0,2-.52c.33-.46.31-.79-.07-1.1A1.82,1.82,0,0,0,16,13.52,7.25,7.25,0,0,0,13.41,14.39Zm-6.66-.05c0-.1-.09-.11-.14-.13A7.77,7.77,0,0,0,5,13.61a3.63,3.63,0,0,0-1.23-.08c-.84.12-1.19.7-.82,1.34a2,2,0,0,0,1.75.63c.23,0,.38-.08.35-.31a.36.36,0,0,1,.11-.29,1.63,1.63,0,0,1,1.17-.55A2.17,2.17,0,0,0,6.75,14.34Zm1-.38c-.16,0-.33.07-.39.21s.12.17.21.23l.85.55a.17.17,0,0,0,.24,0,.89.89,0,0,1,.75-.13,2.36,2.36,0,0,0,1.06.07,1.47,1.47,0,0,1,1.41.09c.05,0,.09,0,.13,0l.88-.59c.17-.12.13-.23-.05-.3a1.14,1.14,0,0,0-.73,0,1.9,1.9,0,0,1-1.29-.16,1.55,1.55,0,0,0-.61-.13,1.91,1.91,0,0,0-.79.18,1.87,1.87,0,0,1-1.28.1C8,14,7.87,14,7.74,14Zm.41,1.23c-.05,0-.07-.08-.11-.1a2.75,2.75,0,0,0-1.45-.51,1.52,1.52,0,0,0-1.06.27.5.5,0,0,0-.28.45,1.21,1.21,0,0,0,1.11.92c.12,0,.18,0,.19-.13,0-.46.25-.67.77-.83C7.59,15.19,7.85,15.27,8.15,15.19Zm4,0h.6a1,1,0,0,1,1,.71c.05.35.05.35.45.23l.17-.05a.94.94,0,0,0,.66-.84c0-.35-.31-.5-.63-.63a1.8,1.8,0,0,0-.73-.05A2.47,2.47,0,0,0,12.2,15.22Zm-3.13,3.4c0,.41.13.67.41.79a1.35,1.35,0,0,0,1.46-.1.62.62,0,0,0,.25-.81c0-.07,0-.13-.15-.13-.51,0-1-.38-1.54-.05H9.45C9.13,18.28,9,18.41,9.07,18.62Zm.29-2.33a2.36,2.36,0,0,0-.94-.77,1.17,1.17,0,0,0-1.55.42.33.33,0,0,0,0,.36,1.82,1.82,0,0,0,1,.59c.19.06.33,0,.41-.17a.71.71,0,0,1,.5-.37C9,16.3,9.15,16.33,9.36,16.29Zm1.58,0c.77,0,.79.05,1.15.54.05.08.11.09.21.07a2.45,2.45,0,0,0,1-.44.31.31,0,0,0,.13-.19c.11-.45-.29-.85-.84-.87A2,2,0,0,0,10.94,16.3ZM9.21,15.08c-.19,0-.31,0-.37.1s.07.15.14.21a7.42,7.42,0,0,1,1.12,1.2c.05.06.1.18.2,0a7.72,7.72,0,0,1,1.2-1.3c.13-.11.09-.2-.08-.26a.51.51,0,0,0-.3,0,3.76,3.76,0,0,1-1.67.06Zm1.06,2.53c0,.32.08.4.45.48A.82.82,0,0,0,11.3,18a1.24,1.24,0,0,0,.62-.68.56.56,0,0,0-.34-.68.74.74,0,0,0-.82,0A1.09,1.09,0,0,0,10.27,17.61ZM10,17.46a1.06,1.06,0,0,0-.26-.71A.7.7,0,0,0,9,16.53a.65.65,0,0,0-.57.67.84.84,0,0,0,.62.8C9.65,18.19,10,18,10,17.46ZM5,18.89c.2.45,1.3.62,2.27.07l-1.14-.35c-.18-.07-.27-.06-.3.14s-.22.35-.53.25Zm10.39,0-.1,0c-.51.17-.54.16-.72-.3,0-.09-.1-.09-.17-.07l-1.25.4a2.47,2.47,0,0,0,2.09.17C15.34,19,15.46,19,15.37,18.86ZM9.71,20.28a1.11,1.11,0,0,1-.59,1.1c-.09.06-.15.14-.07.23a.24.24,0,0,0,.31.08A.9.9,0,0,0,9.71,20.28Zm.9,0A.89.89,0,0,0,11,21.63a.31.31,0,0,0,.35,0c.11-.09,0-.17-.08-.22A1.42,1.42,0,0,1,10.61,20.27Z"/><path class="cls-4" d="M18.69,9s0,0,0,0c-.06-.38-.06-.38.37-.53a1.65,1.65,0,0,1,.76-.14c-.28.85-.57,1.69-.85,2.53,0,.12-.11.15-.26.12-1.7-.31-3.43-.48-5.16-.62a41.27,41.27,0,0,0-4.72-.13c-1.41.05-2.82.16-4.23.32-1,.11-2.08.24-3.11.44-.12,0-.19,0-.23-.12L.47,8.42c0-.12,0-.17.15-.13a7,7,0,0,1,.92.28.12.12,0,0,1,.08.18c0,.08-.05.16-.09.26a.46.46,0,0,0,.27-.18l.38-.17a.46.46,0,0,1,.55.08.62.62,0,0,1,.1.71.81.81,0,0,1-.57.52V9.82A.32.32,0,0,0,2,9.47a.43.43,0,0,0-.47.15.29.29,0,0,0,0,.41,1.05,1.05,0,0,0,1.38.1,1.33,1.33,0,0,0,.58-.79c.12.13.22.25.32.34A1.3,1.3,0,0,0,5,10c.29-.1.46-.34.38-.56A.32.32,0,0,0,5,9.15c-.2,0-.31.11-.31.3s0,.11,0,.15c-.6-.2-.84-.57-.65-1a.54.54,0,0,1,.32-.31,1,1,0,0,1,.85.14A1.27,1.27,0,0,0,4.8,8c.07-.28.35-.43.53-.64,0,0,.07,0,.12,0l.16.1c.19.11.44.2.53.35S6,8.09,6,8.29c.2,0,.3-.19.45-.26.5-.13.89,0,1,.3a.78.78,0,0,1-.61.95c0-.28-.13-.42-.35-.42a.35.35,0,0,0-.35.38.52.52,0,0,0,.1.23.75.75,0,0,0,.89.19,1.71,1.71,0,0,0,.88-.75,1.17,1.17,0,0,0,1,.78.81.81,0,0,0,.94-.47.33.33,0,0,0-.23-.43.43.43,0,0,0-.49.1.39.39,0,0,0-.07.35,1,1,0,0,1-.64-.52,2.17,2.17,0,0,1,0-.36c0-.46.46-.68,1-.5L9.63,8c0-.17-.1-.26-.2-.36s-.12-.15,0-.23S9.81,7.12,10,7a.21.21,0,0,1,.29,0c.19.16.46.28.58.46s-.28.31-.27.53c.07,0,.12,0,.17,0a.81.81,0,0,1,.81,0,.62.62,0,0,1,.29.68.88.88,0,0,1-.61.69c-.05,0,0-.09,0-.14A.37.37,0,0,0,11,8.77a.45.45,0,0,0-.43.09.33.33,0,0,0-.09.4.77.77,0,0,0,.87.42,1.32,1.32,0,0,0,1-.71,1.47,1.47,0,0,0,.94.72c.49.13,1-.12.94-.49a.35.35,0,0,0-.38-.33.31.31,0,0,0-.34.33s0,.08,0,.1l-.31-.06L13,9.12c0-.16-.12-.26-.16-.41a.52.52,0,0,1,.25-.66.88.88,0,0,1,.92.12c.06.05.1.12.19.14.06-.15,0-.27-.1-.39s0-.17.07-.24.15-.1.24-.14.33-.3.46-.21.5.35.54.65a1.29,1.29,0,0,0-.35.35c.28,0,.52-.12.76,0a.59.59,0,0,1,.39.51c.06.33-.24.7-.73.78V9.5c0-.2-.07-.33-.29-.35s-.34.12-.39.29.19.51.52.56a1.36,1.36,0,0,0,1.2-.38c.06-.06.08-.16.2-.19a1.35,1.35,0,0,0,1,.88.94.94,0,0,0,.86-.15.34.34,0,0,0,0-.56h0a.39.39,0,0,0-.47-.07c-.25.09-.16.28-.13.44-.11,0-.17-.07-.26,0h0c-.14-.22-.37-.4-.39-.67a.58.58,0,0,1,.21-.58.67.67,0,0,1,.68,0l.12,0a1.14,1.14,0,0,0,.3.23l0,0V9Z"/><path class="cls-5" d="M13.66,5.06a6.71,6.71,0,0,1,2.15,2.43c0,.07.07.13,0,.19s-.16,0-.21,0-.38-.35-.55-.53a.18.18,0,0,0-.28,0l-.69.44c-.2.11-.32.08-.36-.12a4.15,4.15,0,0,0-.15-.7A3.06,3.06,0,0,0,11,4.63c-.19,0-.21,0-.19.14a13.92,13.92,0,0,0,.52,2.28c0,.09.07.18-.06.26s-.22,0-.29-.09l-.7-.52a.2.2,0,0,0-.3,0c-.24.19-.49.36-.74.55-.07,0-.13.11-.24,0a.15.15,0,0,1-.08-.21,14.7,14.7,0,0,0,.53-2.25c0-.18,0-.26-.25-.2A3,3,0,0,0,6.6,7.22a.64.64,0,0,1,0,.2c-.06.14-.15.23-.34.1s-.45-.28-.66-.43-.23-.11-.35,0a5.27,5.27,0,0,1-.48.46c-.07.06-.12.19-.27.1s0-.18,0-.26a6.63,6.63,0,0,1,2-2.3.07.07,0,0,0,0,0,.64.64,0,0,0-.43,0A5.27,5.27,0,0,0,3.8,6.63,5.66,5.66,0,0,0,3,7.72a.37.37,0,0,1-.26.21,1.81,1.81,0,0,0-.78.4c-.07.06-.15.14-.27.08s0-.17,0-.23A7.45,7.45,0,0,1,7.55,4.45a17.35,17.35,0,0,1,6.18.2,7.1,7.1,0,0,1,4.85,3.56s.12.12,0,.19a.2.2,0,0,1-.27-.06,2,2,0,0,0-.83-.43c-.14,0-.17-.11-.23-.19a6.48,6.48,0,0,0-2-2.06,4.42,4.42,0,0,0-1.18-.56A.86.86,0,0,0,13.66,5.06Z"/><path class="cls-6" d="M18.35,12.19l-1.56-.25a46.19,46.19,0,0,0-11.24-.17c-1.21.12-2.42.27-3.61.49-.16,0-.23,0-.27-.14a5.26,5.26,0,0,0-.21-.75c-.05-.14,0-.19.15-.22.85-.16,1.71-.27,2.58-.38,1.2-.14,2.41-.25,3.63-.32a36.43,36.43,0,0,1,3.91,0c1.26.05,2.51.14,3.76.27,1,.11,2.1.24,3.15.43.17,0,.22.08.17.23s-.13.49-.19.74C18.6,12.17,18.55,12.23,18.35,12.19Z"/><path class="cls-7" d="M13,9.12l.12.12a.39.39,0,0,0,.42.19c.19,0,.05-.17.07-.26s0-.18.19-.17a.2.2,0,0,1,.21.22c0,.26-.32.45-.66.37a1.16,1.16,0,0,1-.92-.73.42.42,0,0,0-.15-.26,1.25,1.25,0,0,1-.16.41,1.13,1.13,0,0,1-1.09.55.52.52,0,0,1-.47-.27.26.26,0,0,1,0-.35.26.26,0,0,1,.29,0,.24.24,0,0,1,.12.32c-.07.22,0,.2.21.12a1,1,0,0,0,.79-.95c0-.42-.28-.64-.92-.77a1.08,1.08,0,0,1,.38-.26c.16-.06.18-.14.14-.27s-.12-.43-.19-.64,0-.2.19-.18l1.25.15a.29.29,0,0,1,.24.18,4.94,4.94,0,0,1,.17.74c.06.27.49.26.57.54-.46-.08-.92-.11-1.12.35A.68.68,0,0,0,13,9.12Z"/><path class="cls-7" d="M6.4,7.92c0-.2.18-.27.31-.34A.39.39,0,0,0,7,7.15.32.32,0,0,1,7,7c.12-.57.19-.61,1.07-.69l.48,0c.25,0,.31,0,.25.24a1.21,1.21,0,0,1-.05.14c-.17.37-.24.71.32.9,0,0,0,0,0,.05-.79.21-1,.58-.8,1.16a.93.93,0,0,0,.54.54.4.4,0,0,0,.35.06c.11,0,0-.14,0-.22s.06-.27.26-.27a.22.22,0,0,1,.25.27.5.5,0,0,1-.49.41,1.06,1.06,0,0,1-1-.38,2.54,2.54,0,0,1-.31-.67.51.51,0,0,0-.07.17,1.21,1.21,0,0,1-1.16.93.42.42,0,0,1-.45-.33A.23.23,0,0,1,6.33,9a.22.22,0,0,1,.21,0,.18.18,0,0,1,.08.24c-.08.22.06.2.22.15a1,1,0,0,0,.72-.91C7.56,7.94,7,7.66,6.4,7.92Z"/><path class="cls-8" d="M2,8.57A1.25,1.25,0,0,1,3,8c.16,0,.27-.06.32-.19.14-.46.62-.54,1.08-.7-.34.45,0,.69.35.89,0,.13-.08.08-.14.08a.69.69,0,0,0-.6.33.82.82,0,0,0,.54,1.23c.31.11.35.09.33-.19,0-.11,0-.22.18-.23s.21.08.22.2c0,.31-.34.51-.78.42a1.33,1.33,0,0,1-.83-.6c-.07-.08-.08-.21-.24-.24a1.27,1.27,0,0,1-.24.67,1.13,1.13,0,0,1-1,.53c-.31,0-.56-.22-.55-.44s.07-.18.2-.2.22,0,.25.1a.41.41,0,0,1,0,.22c-.08.22.06.19.22.15a1.11,1.11,0,0,0,.59-.42.84.84,0,0,0,0-1C2.62,8.37,2.29,8.49,2,8.57Z"/><path class="cls-8" d="M15.59,8c.17-.11.39-.19.48-.34s-.16-.29-.19-.49c.44.15.92.22,1.08.67,0,.14.15.2.33.21a1.55,1.55,0,0,1,1,.43.14.14,0,0,1-.15,0l-.14,0a.57.57,0,0,0-.71.42.83.83,0,0,0,.52,1h0c0,.09.12.09.19.12s.16.06.22,0,0-.12,0-.17,0-.26.17-.3a1.61,1.61,0,0,1,.31,0h0c.05.49-.3.74-.82.61a1.18,1.18,0,0,1-.63-.37,1.66,1.66,0,0,1-.35-.95,1.86,1.86,0,0,1-.41.63,1.12,1.12,0,0,1-1,.37c-.31,0-.48-.18-.47-.4s.05-.23.2-.23a.2.2,0,0,1,.2.25c0,.26,0,.28.3.18a1,1,0,0,0,.72-.86c0-.39-.28-.62-.79-.71C15.48,8.1,15.56,8.05,15.59,8Z"/><path class="cls-9" d="M2,8.57c.32-.08.65-.2.92.09a.84.84,0,0,1,0,1,1.11,1.11,0,0,1-.59.42c-.16,0-.3.07-.22-.15a.41.41,0,0,0,0-.22c0-.1-.14-.13-.25-.1s-.2.09-.2.2.24.43.55.44a1.13,1.13,0,0,0,1-.53A1.27,1.27,0,0,0,3.41,9c.16,0,.17.16.24.24a1.33,1.33,0,0,0,.83.6c.44.09.81-.11.78-.42,0-.12,0-.21-.22-.2s-.18.12-.18.23c0,.28,0,.3-.33.19A.82.82,0,0,1,4,8.45a.69.69,0,0,1,.6-.33c.06,0,.19.05.14-.08L4.8,8a1.27,1.27,0,0,1,.43.48,1,1,0,0,0-.85-.14.54.54,0,0,0-.32.31c-.19.41.05.78.65,1,.07,0,0-.11,0-.15s.11-.28.31-.3a.32.32,0,0,1,.37.24c.08.22-.09.46-.38.56a1.3,1.3,0,0,1-1.21-.27c-.1-.09-.2-.21-.32-.34a1.33,1.33,0,0,1-.58.79A1.05,1.05,0,0,1,1.54,10a.29.29,0,0,1,0-.41A.43.43,0,0,1,2,9.47a.32.32,0,0,1,.25.35V10a.81.81,0,0,0,.57-.52.62.62,0,0,0-.1-.71.46.46,0,0,0-.55-.08l-.38.17c0-.07-.05-.17.08-.21a.09.09,0,0,0,.09,0Z"/><path class="cls-9" d="M6.4,7.92c.59-.26,1.16,0,1.16.58a1,1,0,0,1-.72.91c-.16.05-.3.07-.22-.15A.18.18,0,0,0,6.54,9a.22.22,0,0,0-.21,0,.23.23,0,0,0-.1.25.42.42,0,0,0,.45.33,1.21,1.21,0,0,0,1.16-.93.51.51,0,0,1,.07-.17,2.54,2.54,0,0,0,.31.67,1.06,1.06,0,0,0,1,.38.5.5,0,0,0,.49-.41.22.22,0,0,0-.25-.27c-.2,0-.25.13-.26.27s.12.17,0,.22a.4.4,0,0,1-.35-.06.93.93,0,0,1-.54-.54l.11,0a1,1,0,0,0,.64.52.39.39,0,0,1,.07-.35.43.43,0,0,1,.49-.1.33.33,0,0,1,.23.43.81.81,0,0,1-.94.47,1.17,1.17,0,0,1-1-.78,1.71,1.71,0,0,1-.88.75.75.75,0,0,1-.89-.19.52.52,0,0,1-.1-.23.35.35,0,0,1,.35-.38c.22,0,.34.14.35.42a.78.78,0,0,0,.61-.95C7.3,8,6.91,7.9,6.41,8Z"/><path class="cls-10" d="M9.93,1.57c0-.42,0-.42-.44-.42H9.31c-.18,0-.25,0-.25-.18s0-.24.25-.19h0c.59,0,.6,0,.58-.46,0-.15,0-.22.23-.22s.17.11.17.22c0,.56-.09.49.56.46.2,0,.32,0,.31.21s-.06.19-.22.16h-.26c-.42,0-.42,0-.41.36,0,.07,0,.15,0,.22s0,.2-.18.2-.24,0-.22-.18A1.28,1.28,0,0,0,9.93,1.57Z"/><path class="cls-9" d="M15.59,8c0,.06-.11.11,0,.13.51.09.76.32.79.71a1,1,0,0,1-.72.86c-.3.1-.33.08-.3-.18a.2.2,0,0,0-.2-.25c-.15,0-.2.11-.2.23s.16.38.47.4a1.12,1.12,0,0,0,1-.37,1.86,1.86,0,0,0,.41-.63,1.66,1.66,0,0,0,.35.95,1.18,1.18,0,0,0,.63.37c.52.13.87-.12.82-.61a.34.34,0,0,1,0,.56.94.94,0,0,1-.86.15,1.35,1.35,0,0,1-1-.88c-.12,0-.14.13-.2.19a1.36,1.36,0,0,1-1.2.38c-.33-.05-.58-.32-.52-.56s.14-.32.39-.29.33.15.29.35v.09c.49-.08.79-.45.73-.78a.59.59,0,0,0-.39-.51c-.24-.09-.48,0-.76,0A1.29,1.29,0,0,1,15.45,8Z"/><path class="cls-11" d="M11.2,2.89a.48.48,0,0,1,0,.26c0,.12-.06.16-.19.16-.62,0-1.23,0-1.84,0-.35,0-.15-.26-.14-.41.25,0,.58.06.75-.05s0-.42.06-.64V2.12a.58.58,0,0,1,.45,0,5.61,5.61,0,0,1,0,.58c0,.16.06.19.23.18S11,2.89,11.2,2.89Z"/><path class="cls-12" d="M9.14,4.9c-.08.37-.16.68-.23,1,0,.1-.05.18-.21.18a9.5,9.5,0,0,0-1.37.14A2.76,2.76,0,0,1,9.14,4.9Z"/><path class="cls-12" d="M12.93,6.2l-1.32-.12c-.08,0-.18,0-.22-.09a5.86,5.86,0,0,1-.21-.9c0-.12,0-.17.19-.12a2.73,2.73,0,0,1,1.38,1Z"/><path class="cls-9" d="M11.26,9.34c-.16.08-.28.1-.21-.12a.24.24,0,0,0-.12-.32.26.26,0,0,0-.29,0,.26.26,0,0,0,0,.35.52.52,0,0,0,.47.27A1.13,1.13,0,0,0,12.16,9a1.25,1.25,0,0,0,.16-.41.42.42,0,0,1,.15.26,1.16,1.16,0,0,0,.92.73c.34.08.67-.11.66-.37A.2.2,0,0,0,13.84,9c-.15,0-.17.07-.19.17s.12.24-.07.26a.39.39,0,0,1-.42-.19l.31.06c.06,0,0-.07,0-.1a.31.31,0,0,1,.34-.33.35.35,0,0,1,.38.33c0,.37-.45.62-.94.49A1.47,1.47,0,0,1,12.33,9a1.32,1.32,0,0,1-1,.71.77.77,0,0,1-.87-.42.33.33,0,0,1,.09-.4A.45.45,0,0,1,11,8.77a.37.37,0,0,1,.27.35c0,.05,0,.1,0,.14Z"/><path class="cls-3" d="M10.13,3.34c.28,0,.57,0,.86,0s.21.06.12.18a1.07,1.07,0,0,1-1,.45,1.16,1.16,0,0,1-1-.44c-.1-.14,0-.19.13-.19Z"/><path class="cls-3" d="M11.2,2.89c-.21,0-.43,0-.65,0s-.24,0-.23-.18a5.61,5.61,0,0,0,0-.58A.81.81,0,0,1,11.2,2.89Z"/><path class="cls-3" d="M9.88,2.12V2.2c0,.22.13.51-.06.64s-.5,0-.75.05A.78.78,0,0,1,9.88,2.12Z"/><path class="cls-12" d="M3.84,7.07A4.35,4.35,0,0,1,5.37,5.72a6.06,6.06,0,0,0-.6.76A1.18,1.18,0,0,1,3.84,7.07Z"/><path class="cls-12" d="M14.94,5.76a3.68,3.68,0,0,1,1.33,1.13s.08.07,0,.12-.09,0-.14,0a.78.78,0,0,1-.55-.37C15.4,6.33,15.16,6.05,14.94,5.76Z"/><path class="cls-9" d="M17.77,9.94a.83.83,0,0,1-.52-1A.57.57,0,0,1,18,8.49l.14,0a.14.14,0,0,0,.15,0c.19.06.25.15.14.31l-.12,0a.67.67,0,0,0-.68,0,.58.58,0,0,0-.21.58C17.4,9.54,17.63,9.72,17.77,9.94Z"/><path class="cls-8" d="M2,8.57a.09.09,0,0,1-.09,0S1.92,8.56,2,8.57Z"/><path class="cls-13" d="M5.87,18l.85-.1A2.18,2.18,0,0,1,8,18.18c.09.05.21.12.28,0s0-.15-.13-.19a3,3,0,0,0-1.23-.38,20.3,20.3,0,0,0-2.34,0c-.56,0-.57,0-.56-.45a4.84,4.84,0,0,1,.06-1.2c0-.14.11-.19.28-.2.42-.05.78-.08,1.07.3a1.54,1.54,0,0,0,1.09.42.29.29,0,0,1,.24.06A2.61,2.61,0,0,0,8,17.13a.33.33,0,0,1,.28.29,1,1,0,0,0,.46.68c.08,0,.14.1.1.2a1.07,1.07,0,0,0,.14,1,3.16,3.16,0,0,1,.45.9.8.8,0,0,1-.36.94,1.09,1.09,0,0,0-.17.13.35.35,0,0,0-.11.45.44.44,0,0,0,.46.23.33.33,0,0,1,.35.15c.4.62.43.84-.09,1.34-.05.05-.1.08,0,.16.36.48.23.84-.38,1.12a1.36,1.36,0,0,0-.11-.25s0-.12-.13-.1-.06.09-.06.14a.78.78,0,0,1-.12.49,1,1,0,0,1-1.43.22c-.11-.09-.15,0-.21,0a1.11,1.11,0,0,1-1.26-.18l.68-.39a.19.19,0,0,1,.13,0,1.79,1.79,0,0,0,1.38-.4A1.61,1.61,0,0,1,8.37,24a1,1,0,0,0,.74-.76.52.52,0,0,0-.44-.62c-.06,0-.14,0-.18,0s0,.09.07.13a.56.56,0,0,1-.25,1c-.09,0-.12,0-.13-.06a.44.44,0,0,0-.06-.16c0-.06,0-.12-.13-.11s-.08.09-.09.15c0,.52-.45.83-1.06.79-.15,0-.27,0-.25-.2s0-.13-.08-.14-.1.07-.13.12a1.14,1.14,0,0,1-.7.54,1,1,0,0,1-1-.3c-.19-.22-.16-.49.11-.79l0,0c.4-.35.43-.49-.21-.79-.11,0-.32,0-.28-.19a.46.46,0,0,1,.41-.28,4.87,4.87,0,0,1,.54,0c.14,0,.2,0,.15-.16a1.77,1.77,0,0,1-.08-.33c0-.19-.16-.25-.34-.14s-.52.08-.78.1-.27-.09-.07-.21a.26.26,0,0,0,.08-.38c-.06-.12,0-.15.12-.18a1.57,1.57,0,0,1,1.6.59,1.59,1.59,0,0,1,.26.43.83.83,0,0,0,1.36.24c.1-.1.25-.08.37-.11.43-.11.59-.43.37-.78-.12,0-.11.15-.12.22a.45.45,0,0,1-.28.32c-.12.06-.26.14-.27-.08a.1.1,0,0,0-.1-.1c-.08,0-.06.07-.07.11a.42.42,0,0,1-.42.4.47.47,0,0,1-.5-.29,3.06,3.06,0,0,0-.75-.86.3.3,0,0,1-.12-.36.55.55,0,0,0-.56-.68c-.08,0-.18,0-.2,0s.09.07.15.09c.28.07.39.2.32.41a.21.21,0,0,1-.29.16,2.49,2.49,0,0,0-1.24.07c-.44.12-.59,0-.49-.35.21-.78.44-1.57.6-2.36C4,18,4,18,4.15,18c.41,0,.4,0,.42.36a3.07,3.07,0,0,0,.07.6c0,.15.12.24.3.29a4.7,4.7,0,0,1,1,.39.32.32,0,0,0,.35,0A19.13,19.13,0,0,1,8.11,19c.05,0,.12,0,.12-.09s-.11-.09-.18-.1a12.08,12.08,0,0,1-2.14-.67S5.89,18.07,5.87,18Z"/><path class="cls-13" d="M15.13,17.58a5.76,5.76,0,0,0-2.41.19,1.69,1.69,0,0,0-.59.28c-.05.05-.1.1-.05.16s.13,0,.18,0a3.13,3.13,0,0,1,2.22-.16,15,15,0,0,1-2.41.76v.07l.53.21a9.14,9.14,0,0,1,1.28.55.53.53,0,0,0,.58,0,2.86,2.86,0,0,1,.83-.32c.29-.07.41-.22.4-.46a2.18,2.18,0,0,0,0-.72,1.19,1.19,0,0,1,.49-.1c.1,0,.13,0,.15.1.22.84.44,1.69.65,2.53,0,.18-.16.3-.39.25a3,3,0,0,0-1.07-.15.58.58,0,0,0-.23,0c-.17.06-.29,0-.36-.12a.25.25,0,0,1,.14-.37c.1-.05.23-.05.28-.16-.53,0-.83.23-.71.65a.31.31,0,0,1-.13.36,2.8,2.8,0,0,0-.73.85.52.52,0,0,1-.57.29.47.47,0,0,1-.39-.46s0,0,0-.07l-.08,0c-.09,0,0,.23-.17.2a.48.48,0,0,1-.4-.32.39.39,0,0,0-.12-.27c-.24.29-.1.66.31.77a1.27,1.27,0,0,1,.58.26.8.8,0,0,0,1.17-.34,2.06,2.06,0,0,1,.69-.84,1.62,1.62,0,0,1,1.24-.21c.09,0,.14.05.09.13s0,.39.2.53a1,1,0,0,1-.93,0c-.31-.08-.39-.08-.41.18s-.16.32,0,.41.31,0,.48,0,.41,0,.51.23,0,.16-.08.2h-.06c-.57.23-.79.4-.26.86a.53.53,0,0,1,0,.88,1,1,0,0,1-1.24.08,1.16,1.16,0,0,1-.43-.45s0-.1-.12-.09a.1.1,0,0,0-.08.12c0,.23-.16.22-.34.22-.58,0-1-.32-1-.8,0-.05,0-.12-.05-.14a.15.15,0,0,0-.16.12.86.86,0,0,0,0,.23.82.82,0,0,1-.64-.63c0-.18.13-.28.27-.39s.1-.05.07-.11-.09-.05-.15-.05a.5.5,0,0,0-.48.42c-.07.37.29.81.81,1a.88.88,0,0,1,.33.18,1.58,1.58,0,0,0,1.32.42.41.41,0,0,1,.32.07c.11.08.24.14.36.21s.22,0,.21.13-.13.15-.23.2a1.19,1.19,0,0,1-1,0,.2.2,0,0,0-.25,0,1,1,0,0,1-1.47-.44l0-.22c0-.07,0-.2-.06-.21s-.15.1-.17.19-.13.14-.26.06c-.44-.26-.53-.64-.22-1,.09-.1,0-.14,0-.2a.87.87,0,0,1,0-1.37c.06-.06.11-.13.23-.12a.47.47,0,0,0,.56-.25c.09-.21,0-.38-.23-.51A.85.85,0,0,1,11,20.06a2.42,2.42,0,0,1,.29-.58c.05-.1.11-.19.17-.29a1,1,0,0,0,.11-.85.16.16,0,0,1,.07-.23,1.05,1.05,0,0,0,.48-.73c0-.15.11-.2.26-.24a3,3,0,0,0,1.27-.64.38.38,0,0,1,.28-.09,1.47,1.47,0,0,0,1.24-.6.3.3,0,0,1,.33-.12,1.81,1.81,0,0,0,.39.05c.29,0,.41.08.42.3,0,.46,0,.93.05,1.39,0,.11-.09.14-.19.15H16Z"/><path class="cls-14" d="M7.78,27.6c-.43.07-.87,0-1.3.1-.15,0-.17-.06-.15-.15.11-.59.06-1.19.15-1.79,0,0,0-.1.06-.1.23,0,.42-.13.67-.05a1.75,1.75,0,0,0,1.72-.39A.83.83,0,0,1,9.26,25a1,1,0,0,0,.67-1.25c0-.13,0-.2.25-.56a.66.66,0,0,1,.16.64c-.12.5.16.89.75,1.15a1,1,0,0,1,.4.29,1.52,1.52,0,0,0,1.59.33c.22-.09.37,0,.56,0s.23.24.25.39c.06.5.1,1,.17,1.5,0,.16,0,.19-.21.19-.85,0-1.69,0-2.54-.11l-.13,0Z"/><path class="cls-13" d="M7.81,13.16a1,1,0,0,1,.79-.76,1.37,1.37,0,0,1,1.48.51,2.73,2.73,0,0,1,.47-.35,1.28,1.28,0,0,1,1.73.42c.09.15.13.17.3.06a1.7,1.7,0,0,1,2.18.33c.09.08.11.14,0,.2l-1.26.49a.17.17,0,0,1-.23-.06.93.93,0,0,0-.83-.25,3.75,3.75,0,0,1-1.91-.2,1.52,1.52,0,0,0-1.13.08A2.14,2.14,0,0,1,8,13.77a.78.78,0,0,0-.86.25c-.07.1-.13.06-.21,0a6.79,6.79,0,0,0-1.4-.55c-.22-.06-.14-.17-.06-.26a1.62,1.62,0,0,1,1.39-.48A1.65,1.65,0,0,1,7.81,13.16Z"/><path class="cls-13" d="M13.41,14.39A7.25,7.25,0,0,1,16,13.52a1.82,1.82,0,0,1,1.37.31c.38.31.4.64.07,1.1a2.07,2.07,0,0,1-2,.52c-.08,0-.09-.07-.1-.13a1.14,1.14,0,0,0-1.25-1C13.88,14.35,13.68,14.38,13.41,14.39Z"/><path class="cls-13" d="M6.75,14.34a2.17,2.17,0,0,1-.44,0,1.63,1.63,0,0,0-1.17.55.36.36,0,0,0-.11.29c0,.23-.12.29-.35.31a2,2,0,0,1-1.75-.63c-.37-.64,0-1.22.82-1.34A3.63,3.63,0,0,1,5,13.61a7.77,7.77,0,0,1,1.63.6S6.75,14.24,6.75,14.34Z"/><path class="cls-11" d="M7.74,14c.13,0,.27,0,.39.08a1.87,1.87,0,0,0,1.28-.1,1.91,1.91,0,0,1,.79-.18,1.55,1.55,0,0,1,.61.13,1.9,1.9,0,0,0,1.29.16,1.14,1.14,0,0,1,.73,0c.18.07.22.18.05.3L12,15s-.08,0-.13,0a1.47,1.47,0,0,0-1.41-.09,2.36,2.36,0,0,1-1.06-.07.89.89,0,0,0-.75.13.17.17,0,0,1-.24,0l-.85-.55c-.09-.06-.26-.09-.21-.23S7.58,14,7.74,14Z"/><path class="cls-13" d="M8.15,15.19c-.3.08-.56,0-.83.07-.52.16-.74.37-.77.83,0,.14-.07.15-.19.13a1.21,1.21,0,0,1-1.11-.92.5.5,0,0,1,.28-.45,1.52,1.52,0,0,1,1.06-.27A2.75,2.75,0,0,1,8,15.09S8.1,15.15,8.15,15.19Z"/><path class="cls-13" d="M12.2,15.22a2.47,2.47,0,0,1,1.55-.63,1.8,1.8,0,0,1,.73.05c.32.13.62.28.63.63a.94.94,0,0,1-.66.84l-.17.05c-.4.12-.4.12-.45-.23a1,1,0,0,0-1-.71Z"/><path class="cls-11" d="M9.07,18.62c0-.21.06-.34.38-.3H9.5c.53-.33,1,.06,1.54.05.1,0,.12.06.15.13a.62.62,0,0,1-.25.81,1.35,1.35,0,0,1-1.46.1C9.2,19.29,9.08,19,9.07,18.62Z"/><path class="cls-11" d="M9.36,16.29c-.21,0-.38,0-.55.06a.71.71,0,0,0-.5.37c-.08.2-.22.23-.41.17a1.82,1.82,0,0,1-1-.59.33.33,0,0,1,0-.36,1.17,1.17,0,0,1,1.55-.42A2.36,2.36,0,0,1,9.36,16.29Z"/><path class="cls-13" d="M10.94,16.3a2,2,0,0,1,1.65-.89c.55,0,.95.42.84.87a.31.31,0,0,1-.13.19,2.45,2.45,0,0,1-1,.44c-.1,0-.16,0-.21-.07C11.73,16.35,11.71,16.34,10.94,16.3Z"/><path class="cls-13" d="M9.21,15.08l.24,0a3.76,3.76,0,0,0,1.67-.06.51.51,0,0,1,.3,0c.17.06.21.15.08.26a7.72,7.72,0,0,0-1.2,1.3c-.1.14-.15,0-.2,0A7.42,7.42,0,0,0,9,15.39c-.07-.06-.2-.11-.14-.21S9,15.07,9.21,15.08Z"/><path class="cls-13" d="M10.27,17.61a1.09,1.09,0,0,1,.49-.92.74.74,0,0,1,.82,0,.56.56,0,0,1,.34.68,1.24,1.24,0,0,1-.62.68.82.82,0,0,1-.58.08C10.35,18,10.26,17.93,10.27,17.61Z"/><path class="cls-13" d="M10,17.46c0,.52-.39.73-1,.54a.84.84,0,0,1-.62-.8A.65.65,0,0,1,9,16.53a.7.7,0,0,1,.76.22A1.06,1.06,0,0,1,10,17.46Z"/><path class="cls-10" d="M5,18.89l.3.11c.31.1.49,0,.53-.25s.12-.21.3-.14L7.25,19C6.28,19.51,5.18,19.34,5,18.89Z"/><path class="cls-10" d="M15.37,18.86c.09.15,0,.18-.15.23a2.47,2.47,0,0,1-2.09-.17l1.25-.4c.07,0,.14,0,.17.07.18.46.21.47.72.3Z"/><path class="cls-10" d="M9.71,20.28a.9.9,0,0,1-.35,1.41.24.24,0,0,1-.31-.08c-.08-.09,0-.17.07-.23A1.11,1.11,0,0,0,9.71,20.28Z"/><path class="cls-10" d="M10.61,20.27a1.42,1.42,0,0,0,.61,1.1c.07.05.19.13.08.22a.31.31,0,0,1-.35,0A.89.89,0,0,1,10.61,20.27Z"/><path class="cls-9" d="M7.78,27.6l3.4,0,.13,0Z"/><path class="cls-9" d="M15.13,17.58l.82,0A2.81,2.81,0,0,1,15.13,17.58Z"/><path class="cls-9" d="M15.73,18.14a2.18,2.18,0,0,1,0,.72Z"/><path class="cls-9" d="M16.08,17.59h.07A0,0,0,0,1,16.08,17.59Z"/><path class="cls-9" d="M18.63,9.6a1.61,1.61,0,0,0-.31,0c-.16,0-.24.14-.17.3s.11.11,0,.17-.15,0-.22,0-.17,0-.19-.12.15,0,.26,0c0-.16-.12-.35.13-.44A.39.39,0,0,1,18.63,9.6Z"/><path class="cls-2" d="M18.69,9h0V9l0,0Z"/></g></g></svg>